<svg xmlns="http://www.w3.org/2000/svg" width="256" height="256"><path fill="#1976D2" fill-opacity=".016" fill-rule="evenodd" d="M0 128.004v128.004l128.25-.254 128.25-.254.254-127.75L257.008 0H0zm.485.496c0 70.4.119 99.053.265 63.672s.146-92.98 0-128S.485 58.1.485 128.5"/><path fill="#1976D2" fill-opacity=".315" fill-rule="evenodd" d="M127.878 9.012c-1.412 4.714-2.474 5.757-6.723 6.607-2.67.534-3.155.334-3.155-1.303 0-3.076-2.441-5.745-4.523-4.946-1.381.53-1.534.973-.644 1.863.642.642 1.167 2.391 1.167 3.888 0 2.207-.564 2.844-2.987 3.376-1.643.361-4.418.509-6.166.33-3.979-.409-4.935 1.72-1.48 3.294 1.812.826 3.666.86 6.578.121 4-1.015 4.055-.993 4.055 1.698 0 1.5-.338 3.064-.75 3.477s-.75 1.179-.75 1.704c0 .526-1.8 1.962-4 3.192-3.427 1.917-4.045 2.78-4.315 6.032-.293 3.538 1.037 6.655 2.84 6.655.428 0 1.24-1.321 1.803-2.936.964-2.765 7.172-7.233 7.172-5.161 0 1.233-2.581 3.802-5.258 5.235-1.9 1.017-1.946 1.24-.476 2.315 1.409 1.03.903 1.628-3.777 4.464-6.617 4.011-8.223 5.749-6.711 7.261.792.792 2.476.642 6.096-.542 2.751-.9 5.312-1.636 5.692-1.636s.408 1.764.063 3.921c-.71 4.44-.016 7.079 1.861 7.079.835 0 1.52-2.27 1.978-6.55l.702-6.55 7.387-3.656c4.063-2.01 7.608-4.231 7.878-4.936s-.583-2.525-1.897-4.045l-2.39-2.763 2.073-2.221c1.76-1.885 1.872-2.463.74-3.826-.964-1.161-2.251-1.434-4.647-.984-4.116.772-4.591-1.447-.75-3.503q2.563-1.372 2.092-3.173c-.779-2.978 2.413-5.669 7.344-6.192 2.475-.262 4.668-.505 4.872-.539.205-.034-.187-.737-.872-1.562s-2.588-1.5-4.229-1.5c-2.456 0-2.855-.31-2.249-1.75 1.864-4.437 1.759-6.25-.365-6.25-1.557 0-2.377 1.003-3.279 4.012m19.71 3.238c-.802 1.238-2.003 4.438-2.67 7.112-1.014 4.067-1.755 5.09-4.533 6.25-1.826.764-4.123 1.395-5.103 1.403s-2.453.44-3.274.959c-1.191.753-1.24 1.194-.244 2.19.995.995 2.186.997 5.876.01 6.096-1.631 6.779-.711 1.237 1.664-6.324 2.711-7.003 3.842-5.206 8.662 2.939 7.881 2.972 7.768-3.176 10.783-8.388 4.114-6.961 5.217 6.756 5.217 11.703 0 15.433.752 9.832 1.982-5.773 1.268-3.919 2.073 4.498 1.952 4.633-.067 8.422-.416 8.421-.777L160 58.026c0-1.682-5.602-3.962-11.414-4.645-4.962-.583-5.586-.912-5.586-2.944 0-1.656 1.172-2.934 4.25-4.632 5.491-3.029 5.826-6.072.75-6.822l-3.5-.517 3-1.921c5.606-3.588 6.594-4.727 5.374-6.197-.615-.741-2.189-1.348-3.496-1.348-4.002 0-2.673-1.822 3.66-5.019 5.83-2.943 6.995-4.981 2.847-4.981-1.406 0-2.587-1.333-3.988-4.5-1.095-2.475-2.184-4.5-2.421-4.5s-1.086 1.012-1.888 2.25M49.432 38c-7.124 4.565-12.223 14.435-21.283 41.193-8.558 25.275-12.008 33.589-18.236 43.952C7.211 127.641 5 131.922 5 132.66c0 4.254 8.872-1.761 16.119-10.929C23.253 119.03 25 117.198 25 117.66s-.709 4.44-1.576 8.84c-2.196 11.148-2.278 26.922-.167 31.75 1.445 3.303 3.691 5.089 3.772 3 .309-8.02 1.201-13.784 2.825-18.25l2-5.5.056 6c.111 11.96-5.806 30.235-11.529 35.612-2.471 2.321-3.116 5.315-1.377 6.39 1.716 1.061 12.213-7.11 18.906-14.716l6.388-7.26-.729 4.987c-1.091 7.465-5.238 19.169-9.385 26.487-4.746 8.374-4.62 8-2.702 8 3.513 0 12.002-10.288 17.738-21.5l5.629-11 1.288 3c.709 1.65 1.531 7.725 1.826 13.5l.537 10.5 3-.043c2.615-.037 3.039-.443 3.307-3.159l.306-3.116 6.694 6.684c4.834 4.828 9.262 8.01 15.943 11.456 5.088 2.625 9.25 4.322 9.25 3.773 0-.55-2.7-4.041-6-7.759s-6-7.114-6-7.547c0-.434 1.35-.789 3-.789s3 .395 3 .877c0 .483 3.375 3.898 7.5 7.59s7.494 6.335 7.486 5.873c-.007-.462-2.504-3.765-5.547-7.34-4.012-4.713-5.108-6.589-3.986-6.823.851-.178 1.547-.741 1.547-1.25 0-.51-2.925-.927-6.5-.927H85v-19h6.583c4.821 0 6.473-.335 6.17-1.25-.266-.807-2.961-1.354-7.599-1.544-6.52-.267-7.258-.1-7.961 1.8-.63 1.704-1.587.173-5.131-8.206C73.297 157.899 67 140.589 67 139.141c0-.266 1.325 1.516 2.943 3.96 3.545 5.351 10.864 13.426 11.548 12.741.271-.27-1.078-3.608-2.997-7.417s-3.489-7.293-3.491-7.743 1.321.125 2.939 1.277 4.562 2.771 6.541 3.598c3.241 1.355 3.446 1.657 2.058 3.045-2.2 2.199-1.947 8.612.459 11.671 2.963 3.767 2.308 6.635-.804 3.523-.94-.94-1.144-.444-.928 2.25.224 2.796.737 3.52 2.698 3.799 5.228.745 6.775-7.097 2.534-12.845-3.091-4.189-3.091-4.365-.018-3.594 2.279.572 2.454.377 2.131-2.391-.193-1.658.025-3.015.484-3.015.46 0 .963 4.832 1.119 10.738.246 9.299.519 10.783 2.034 11.073 1.46.28 1.75-.421 1.75-4.238 0-4.211.198-4.573 2.5-4.573 2.296 0 2.5.367 2.5 4.5 0 3.833.296 4.5 2 4.5 1.879 0 2-.667 2-11s-.121-11-2-11c-1.667 0-2 .667-2 4 0 3.6-.25 4-2.5 4s-2.5-.4-2.5-4c0-2.5-.469-4.023-1.25-4.062-.687-.035 3.924-1.385 10.248-3 13.869-3.544 20.313-3.733 26.402-.774l4.454 2.163-2.427 1.909c-3.097 2.437-3.166 6.584-.193 11.749 2.35 4.083 1.926 6.222-.787 3.971-1.423-1.181-1.565-.946-1.274 2.107.258 2.707.816 3.506 2.632 3.764 3.501.496 5.195-1.557 5.195-6.294 0-2.953-.602-4.767-2-6.033-2.695-2.439-2.657-4.843.064-3.98 1.441.458 1.971.251 1.757-.682-.661-2.878.863-2.136 5.134 2.497 6.809 7.387 10.88 9.148 21.045 9.105 19.055-.081 32.799-11.154 29.113-23.457-1.79-5.976-6.384-10.502-15.438-15.213-7.408-3.854-11.712-7.393-18.706-15.38-3.417-3.902-7.238-9.39-6.537-9.39.312 0-.332-.9-1.432-2s-2.498-2-3.107-2-.834-.712-.5-1.582.607-1.786.607-2.035 1.012.052 2.25.671c1.622.81 1.413.411-.75-1.429-1.65-1.404-3.45-2.562-4-2.574-.55-.011-.338.398.471.91 2.274 1.438.925 1.893-3.471 1.17l-4-.657-.641-5.987c-.353-3.293-.691-8.595-.75-11.782-.089-4.735-.558-6.245-2.564-8.25-3.37-3.371-6.867-3.119-11.037.795-2.434 2.284-3.804 4.736-4.608 8.25-1.356 5.923-3.538 12.406-4.881 14.5-.802 1.25-1.544.917-4.453-2l-3.491-3.5 1.938-7.34c1.732-6.557 1.787-7.704.514-10.75-1.186-2.838-1.944-3.41-4.517-3.41-2.662 0-3.33.561-4.807 4.039-1.58 3.72-1.866 3.928-3.632 2.637-1.881-1.376-1.877-1.48.228-5.734 1.179-2.383 1.934-4.542 1.678-4.798-.983-.984-4.598 3.41-7.372 8.962-2.212 4.426-3.016 5.341-3.401 3.87-.868-3.32 1.007-9.032 4.315-13.15 1.75-2.177 2.981-4.16 2.735-4.405-.747-.747-8.023 5.48-10.545 9.026-1.303 1.831-2.617 5.18-2.921 7.441S82.384 74 81.952 74c-1.049 0-6.278-6.719-8.289-10.651-.886-1.732-2.61-6.192-3.831-9.911-1.485-4.525-3.478-8.084-6.026-10.762C61.713 40.475 60 38.073 60 37.337c0-2.06-7.005-1.62-10.568.663m3.423 4.7c-4.07 4.36-5.183 9.298-4.553 20.198.306 5.281.884 10.685 1.284 12.008q.73 2.409-.339 1.747c-1.656-1.024-3.551-14.368-2.962-20.864.292-3.21 1.45-7.739 2.575-10.063l2.045-4.226-3.03 3.5c-4.898 5.657-8.359 13.482-16.436 37.166-4.189 12.284-9.348 26.047-11.463 30.584-2.115 4.538-3.705 8.25-3.532 8.25.86 0 11.556-15.13 11.556-16.346 0-2.368 2.548-3.903 3.859-2.324.618.745.921 1.557.673 1.805-.792.792-6.516 30.245-6.484 33.365l.03 3 1.55-3.5c3.077-6.95 3.436-8.158 2.199-7.393-.804.497-.949.153-.466-1.106.386-1.005 1.188-5.016 1.784-8.914 1.477-9.67 3.037-12.911 2.449-5.087-.399 5.309-.333 5.597.573 2.5.564-1.925.799-5.187.524-7.25s-.094-3.75.404-3.75c1.236 0 1.147 10.233-.117 13.558-.774 2.036-.693 2.963.335 3.816 1.094.908 1.221 4.224.657 17.126-.594 13.589-1.107 17.203-3.406 23.983-1.489 4.391-3.188 8.666-3.776 9.5-.588.835 2.574-2.308 7.028-6.983l8.097-8.5-.044-6.5c-.024-3.575-.395-8.75-.823-11.5-.74-4.749-.785-4.594-.912 3.101-.133 8.064-1.385 13.8-3.515 16.114-.828.899-1.067-3.128-.92-15.5.11-9.193.237-16.94.282-17.215.046-.275.631.203 1.301 1.062s2.006 1.857 2.968 2.219 1.75 1.331 1.75 2.156c0 .904.58 1.278 1.458.941.997-.383 1.663.338 2.107 2.281C51.996 155.064 57.58 173 59.189 173c.594 0 .711-.736.278-1.75-4.972-11.645-8.291-27.25-5.795-27.25 1.415 0 5.806 10.276 8.545 20 2.347 8.333 2.459 8.506 5.715 8.823l3.321.323-2.28-3.823c-1.254-2.103-2.864-4.307-3.577-4.897-.714-.591-1.281-1.941-1.26-3 .021-1.06-1.126-4.984-2.549-8.721S59 145.158 59 144.24c0-3.091 2.63.84 4.522 6.76.967 3.025 3.322 8.65 5.234 12.5 3.744 7.542 12.219 20.859 12.863 20.214.217-.217-1.633-4.731-4.11-10.032-5.043-10.792-13.134-33.549-14.642-41.182-.544-2.75-1.135-7.391-1.315-10.314-.259-4.21-.038-5.203 1.061-4.781.763.293 1.387.096 1.387-.436 0-.533.376-.969.835-.969s1.551 4.162 2.427 9.25c2.151 12.492 2.343 13.218 4.281 16.176.928 1.416 1.781 2.574 1.897 2.574.115 0-.868-3.262-2.185-7.25-2.333-7.065-2.432-9.518-.707-17.5.543-2.514.368-3.25-.771-3.25-1.527 0-3.744-4.243-6.27-12l-1.465-4.5.332 5.25c.183 2.888-.05 5.25-.517 5.25s-1.6-2.701-2.517-6.002c-.918-3.301-1.85-5.822-2.07-5.601-.221.221.108 2.292.73 4.603s.883 4.451.579 4.754C56.905 109.429 52 90.108 52 81.839c0-5.545 2.875-4.886 5.1 1.17 1.089 2.963 2.714 5.118 4.775 6.333C63.594 90.355 65 91.934 65 92.852s.9 2.229 2 2.916c1.755 1.096 2.01 2.381 2.079 10.49.043 5.083.304 8.567.579 7.742s.695-2.113.933-2.863c.357-1.125.707-1.135 2.008-.055 1.35 1.12 2.057.744 4.95-2.637 2.08-2.431 3.39-5.041 3.413-6.802.027-2.005.448-2.7 1.414-2.329.814.312 1.837-.486 2.508-1.958.835-1.833 1.643-2.324 3.077-1.868 3.994 1.267 8.525-12.071 6.819-20.071-.739-3.466-.667-5.259.282-7.033.701-1.31 1.032-2.623.737-2.918-.296-.296-1.549 1.953-2.784 4.998C91.779 73.509 90.422 76 90 76c-1.982 0-2.673-9.875-.919-13.151 2.058-3.846.265-2.81-1.946 1.124-1.221 2.173-2.489 6.218-2.817 8.989s-.871 5.03-1.207 5.02c-.695-.021-5.565-5.85-9.036-10.816-1.282-1.833-3.377-6.429-4.657-10.212-3.924-11.598-6.413-15.173-11.433-16.426-1.944-.484-3.11.009-5.13 2.172m3.212 9.174c-1.41 2.635-1.358 5.862.102 6.349.665.222 1.106 2.088 1.022 4.322-.162 4.308.997 8.563 4.211 15.455 2.881 6.18 5.504 9 8.368 9 1.332 0 3.64.868 5.129 1.928 2.075 1.478 4.278 1.905 9.426 1.827 3.695-.056 7.098-.587 7.561-1.179s1.096-3.664 1.406-6.826c.544-5.555.482-5.75-1.829-5.75-1.369 0-2.85.856-3.463 2-.897 1.677-.76 2 .848 2 1.241 0 2.084.864 2.386 2.445.432 2.261.233 2.4-2.633 1.845-1.706-.33-4.373-1.655-5.928-2.945C80.904 80.877 78.547 80 76.371 80c-2.961 0-3.629-.443-4.52-2.996-.744-2.136-1.95-3.23-4.198-3.808-2.666-.686-3.204-1.342-3.485-4.25-.182-1.891-.768-3.964-1.301-4.606-.533-.643-1.284-4.014-1.668-7.491-.528-4.776-1.111-6.402-2.382-6.646-.925-.178-2.162.574-2.75 1.671m115.309 5.662c.725 1.892-4.367 5.873-5.747 4.493-1.626-1.626-2.818-1.2-2.189.782.431 1.358-.312 2.234-2.966 3.5-1.948.929-4.202 1.689-5.008 1.689s-1.466.423-1.466.941c0 2.039 2.184 2.071 6.643.099 2.566-1.135 4.769-1.946 4.895-1.802s-.147 1.256-.607 2.471c-.903 2.386-9.633 7.294-11.681 6.568-.687-.244-1.25.058-1.25.671 0 2.217 3.303 2.303 7.633.2 2.431-1.182 4.63-2.148 4.886-2.148.639 0-2.588 8.18-3.887 9.856-.847 1.09-1.498.798-3.337-1.5-1.704-2.13-2.286-2.423-2.29-1.153-.007 2.448 2.126 6.777 3.406 6.912.599.064 1.539.22 2.089.348s1.936.301 3.079.385c1.472.107 2.057.81 2 2.402-.067 1.91.55 2.326 4.079 2.75 3.731.449 4.63 1.142 8.748 6.75 2.524 3.438 5.266 6.25 6.092 6.25 1.968 0 1.911-1.415-.125-3.105-.894-.743-3.139-3.596-4.987-6.34-3.046-4.523-3.198-5.076-1.623-5.912 3.726-1.979 5.267-3.902 4.178-5.214-.768-.925-.564-1.555.754-2.33 1.465-.862 1.548-1.232.442-1.96-1.151-.757-1.151-.982 0-1.442 1.146-.458 1.143-.699-.019-1.512-1.107-.774-.958-1.101.75-1.643 2.583-.82 2.771-2.228.382-2.853-1.196-.312-.959-.499.75-.588 1.375-.073 3.157-.547 3.96-1.055 1.253-.793 1.204-1.207-.348-2.922-2.823-3.12-1.221-4.211 3.914-2.666 2.462.741 4.708.972 4.992.513.599-.97-3.361-3.971-5.241-3.971-1.517 0-1.697-1.622-.277-2.5 1.671-1.033 1.214-6.5-.544-6.5-.849 0-1.436.563-1.304 1.25.334 1.742-1.119 5.75-2.085 5.75-.438 0-1.941-.9-3.34-2-3.234-2.544-3.379-2.523-4.163.603-.591 2.353-.985 2.541-4.109 1.955-4.369-.82-4.695 1.148-.455 2.748 1.65.623 3 1.447 3 1.832 0 .384-1.687 1.708-3.75 2.942s-4.799 3.183-6.081 4.332l-2.332 2.088.818-3c.449-1.65.745-4.435.656-6.189-.128-2.552.523-3.71 3.264-5.801 3.899-2.973 4.374-5.029 1.346-5.82-1.497-.392-1.93-.155-1.545.846M41.39 60.765C39.16 62.24 35.116 72 36.734 72c.478 0 1.94-2.362 3.25-5.25l2.38-5.25.388 3.331c.213 1.833-.121 4.758-.742 6.5C40.668 75.099 37 94.399 37 97.693c0 3.86 1.751 2.585 3.355-2.443 4.222-13.23 6.023-35.301 2.876-35.235-.402.009-1.231.346-1.841.75m66.814 5.19c.671 1.075 1.36 1.814 1.532 1.643.592-.593-.954-3.598-1.851-3.598-.496 0-.353.88.319 1.955m-4.597 1.627c-.977 2.545-.702 6.293.615 8.402 1.124 1.799 1.321 1.623 2.445-2.183.825-2.795.904-4.734.242-5.97-1.204-2.25-2.497-2.348-3.302-.249m4.964 5.989c-.367 1.466-.475 2.858-.24 3.094.236.235.73-.771 1.098-2.236.367-1.466.475-2.858.24-3.094-.236-.235-.73.771-1.098 2.236m-9.007 2.722c.376.986.935 1.541 1.243 1.233s.001-1.114-.683-1.793c-.988-.98-1.102-.865-.56.56m69.799 1.245c-2.769 1.214-5.363 5.379-5.363 8.611 0 .468 3.262.77 7.25.671 5.533-.138 6.125-.269 2.5-.555-2.613-.206-4.75-.818-4.75-1.36 0-.541.909-2.767 2.02-4.945 1.112-2.178 1.899-3.923 1.75-3.878-.148.044-1.682.7-3.407 1.456M90 79c-1.282.828-1.246.972.25.985.963.008 1.75-.435 1.75-.985 0-1.22-.113-1.22-2 0m17.079.583c.048 1.165.285 1.402.604.605.289-.722.253-1.585-.079-1.917s-.568.258-.525 1.312M216.384 82c.587 3.673.455 4.001-1.622 4.015-1.827.013-1.974.202-.762.985 2.492 1.61-3.054 1.221-6.233-.438-3.353-1.749-4.638-.285-1.611 1.835 1.93 1.351 1.991 1.609.517 2.175-2.405.923-2.06 3.2.577 3.805 1.238.283-.225.356-3.25.16s-6.119-.508-6.875-.696-1.565.172-1.797.799c-.235.636 1.255 1.584 3.375 2.146l3.797 1.007-3.191.104c-4.328.14-4.869 1.519-1.564 3.984l2.755 2.056-3.725.031c-3.656.031-3.714.092-3.118 3.282.898 4.806 1.694 5.108 4.669 1.768 1.479-1.66 3.473-3.038 4.432-3.062.958-.024 3.436-.648 5.506-1.387l3.765-1.343-3.515 3.89c-5.437 6.019-4.574 8.273 1.073 2.799 2.01-1.948 3.972-2.961 5.324-2.75 1.854.29 1.132 1.393-5.385 8.222-4.139 4.338-7.526 8.276-7.526 8.75 0 2.756 3.886-.233 10.662-8.199 6.45-7.584 8.075-8.97 9.961-8.496 2.085.523 4.228-.925 3.075-2.077-.276-.277-2.684-.842-5.35-1.257l-4.848-.755 3.5-1.603c1.925-.882 4.287-1.848 5.25-2.146s1.75-1.005 1.75-1.573c0-1.719-3.441-1.168-9.532 1.525-4.57 2.022-5.951 2.283-6.598 1.25-.521-.832-.283-1.423.656-1.629.811-.178 1.474-.966 1.474-1.75 0-.785.675-1.427 1.5-1.427s1.5-.675 1.5-1.5c0-.884-.923-1.506-2.25-1.515-1.819-.013-1.963-.201-.75-.985.825-.533 2.512-.976 3.75-.985 2.31-.015 3.248-1.964 1-2.078-.687-.035-.238-.471 1-.968 2.528-1.016 2.739-2.268 1.152-6.82-1.594-4.571-3.293-3.997-2.518.851M33.543 84.62c-.388 2.073-1.827 5.98-3.196 8.682-1.474 2.908-1.975 4.741-1.229 4.492 3.565-1.188 8.44-13.636 6.213-15.863-.774-.774-1.281-.011-1.788 2.689m12.604 1.1C44.593 91.921 43.884 101 44.953 101c1.992 0 4.973-17.31 3.173-18.422-.595-.368-1.434.966-1.979 3.142m59.678-1.394c-.373 1.825-.233 2.482.393 1.856.533-.533.793-1.805.576-2.826-.291-1.375-.543-1.123-.969.97M111.5 91c.995 1.1 2.035 2 2.31 2s-.315-.9-1.31-2-2.035-2-2.31-2 .315.9 1.31 2m63-1c-.782 1.266.542 1.266 2.5 0 1.293-.835 1.266-.971-.191-.985-.93-.008-1.969.435-2.309.985m-6.902.736c-1.073 1.073-.63 2.264.843 2.264.793 0 1.69-.403 1.994-.895.636-1.03-1.936-2.271-2.837-1.369m-95.919 1.918c-.359.36-.394 2.497-.077 4.75 1.359 9.653 4.398 14.374 4.398 6.833 0-2.943.49-3.978 2.25-4.75 1.251-.549 2.404-2.076 2.596-3.439.294-2.086.121-2.265-1.161-1.202-.968.804-1.729.892-2.128.246-.342-.552-1.282-.751-2.089-.441-.915.351-1.468-.042-1.468-1.044 0-1.646-1.154-2.12-2.321-.953m-22.132 1.27c-.443.716-.526 6.989-.185 13.939.528 10.766.436 12.119-.621 9.137-1.574-4.438-3.098-4.146-3.741.717-.497 3.761-.511 3.745-2.344-2.905-1.014-3.678-2.514-7.503-3.332-8.5-1.416-1.725-1.453-1.716-.776.188.392 1.1 1.738 5.537 2.992 9.86 2.791 9.625 4.46 11.81 4.46 5.84 0-5.288 1.324-5.4 2.869-.242.652 2.177 1.624 4.228 2.159 4.559 1.193.737 1.192-.965-.008-15.47-.521-6.299-.804-11.596-.63-11.771.175-.174 1.067 4.53 1.983 10.453C54.343 122.47 57.836 136 59.155 136c.86 0 .109-19.892-.789-20.917-.202-.229-.405 2.696-.452 6.5-.111 8.904-1.082 5.934-3.95-12.083-2.322-14.579-3.175-17.586-4.417-15.576M115.232 96c0 1.925.206 2.713.457 1.75.252-.963.252-2.537 0-3.5-.251-.963-.457-.175-.457 1.75M110 96c.589 1.1 1.295 2 1.57 2s.019-.9-.57-2-1.295-2-1.57-2-.019.9.57 2m46.433-.109c.713 1.154 4.567 3.483 4.567 2.759 0-.231-1.18-1.193-2.623-2.139s-2.318-1.224-1.944-.62M86 98.559c0 .857.45 1.281 1 .941s1-1.041 1-1.559S87.55 97 87 97s-1 .702-1 1.559m26.768 1.609c.582.582 1.647.86 2.369.62.749-.25.295-.703-1.057-1.057-1.663-.435-2.054-.305-1.312.437M159 101c-2.327.745-2.349.808-.309.9 1.205.055 2.469-.35 2.809-.9s.479-.955.309-.9zm-77.458 8.085c-2.201 2.437-3.459 4.689-3.116 5.582.316.823.574 1.676.574 1.894 0 .219 1.899 1.367 4.221 2.552 4.85 2.474 17.591 4.01 16.329 1.968-.414-.67-1.376-.978-2.139-.685s-1.28.171-1.149-.271-1.189-2.011-2.934-3.487c-1.745-1.477-4.147-4.699-5.339-7.161-1.192-2.463-2.3-4.477-2.462-4.477s-1.955 1.838-3.985 4.085m83.271 1.598c.721.289 1.584.253 1.916-.079s-.258-.568-1.312-.525c-1.165.048-1.402.285-.604.604M72 114.559c0 .857.457 1.276 1.016.931.559-.346.758-1.047.441-1.559-.857-1.387-1.457-1.129-1.457.628m158.716 3.345c-2.706 4.58-2.17 6.755 2.497 10.136l4.214 3.052-4.214-.674c-3.989-.638-4.213-.543-4.213 1.781 0 2.159-.362 2.402-3 2.014-2.648-.388-3-.148-3 2.051 0 1.37.7 3.072 1.555 3.781s2.018 2.158 2.585 3.217c.897 1.677.76 1.841-1.054 1.265-3.429-1.088-2.359.972 1.448 2.788 4.406 2.101 4.466 2.098 4.466-.22 0-1.048-1.635-3.861-3.633-6.25-3.062-3.663-3.356-4.4-1.869-4.693.969-.192 2.055.125 2.413.704s1.537 1.023 2.62.987 3.432.266 5.219.671c3.519.797 4.074-.107 2.207-3.595-1.639-3.062 1.286-3.464 6.575-.904 4.625 2.239 6.655 2.12 4.668-.274-.751-.905-.784-2.645-.108-5.656.538-2.392.709-4.617.382-4.944-.328-.328-3.048.731-6.046 2.353l-5.451 2.948-3.567-1.921c-2.915-1.57-3.461-2.34-2.988-4.221.318-1.265.855-3.425 1.195-4.8.835-3.387-.796-3.16-2.901.404m-96.966 2.758c.688.278 1.813.278 2.5 0 .688-.277.125-.504-1.25-.504s-1.937.227-1.25.504m-2.897 1.591c.504.504 1.981.749 3.282.544 2.001-.315 1.861-.455-.916-.916-1.988-.329-2.921-.183-2.366.372m-49.12.871c.679.684 1.486.991 1.793.683.308-.308-.247-.867-1.233-1.243-1.425-.542-1.54-.428-.56.56m43.517.223c-4.397 1.443-4.163 2.746.25 1.392 1.925-.591 3.5-1.449 3.5-1.907s-.113-.769-.25-.691c-.137.077-1.713.62-3.5 1.206m17.356.805c1.042 1.459 2.094 2.459 2.338 2.222.245-.236-.607-1.43-1.894-2.652l-2.338-2.222zm-37.856.51c.688.278 1.813.278 2.5 0 .688-.277.125-.504-1.25-.504s-1.937.227-1.25.504m34.25-.284c0 .207.787.995 1.75 1.75 1.586 1.243 1.621 1.208.378-.378-1.307-1.666-2.128-2.195-2.128-1.372M73.195 127.5c.02 1.65.244 2.204.498 1.231s.237-2.323-.037-3-.481.119-.461 1.769m15.618-1.817c.721.289 1.584.253 1.916-.079s-.258-.568-1.312-.525c-1.165.048-1.402.285-.604.604m11 0c.721.289 1.584.253 1.916-.079s-.258-.568-1.312-.525c-1.165.048-1.402.285-.604.604m11.187-.12c3.508.774 9.794.912 9.357.205-.261-.422-2.811-.716-5.666-.652s-4.516.265-3.691.447m12.25 3.092c-7.421 3.036-8.293 5.357-2 5.321 2.338-.014 6.175-.469 8.528-1.012 3.364-.776 4.912-.658 7.25.55 2.881 1.49 2.972 1.467 2.972-.766 0-6.98-6.069-8.464-16.75-4.093m-74.235 7.595c.02 2.918 1.503 5.339 2.391 3.903.839-1.359-.34-6.153-1.514-6.153-.491 0-.885 1.012-.877 2.25m27.483-.362c1.098 1.274 3.348 2.952 5 3.729 1.772.833 2.23.893 1.118.147-1.036-.695-3.286-2.373-5-3.729-3.01-2.38-3.048-2.385-1.118-.147m35.943-.333c-1.864 1.494-1.852 1.512.309.465 1.237-.6 2.25-1.3 2.25-1.555 0-.765-.519-.544-2.559 1.09m-11.988 3.695L96.5 143.5l4.25-3.953c3.952-3.676 4.71-4.547 3.953-4.547-.163 0-2.076 1.912-4.25 4.25m31.297-3.588c.688.278 1.813.278 2.5 0 .688-.277.125-.504-1.25-.504s-1.937.227-1.25.504m5.972 2.388c1.222 1.287 2.416 2.139 2.652 1.894s-.763-1.296-2.222-2.338l-2.652-1.894zm-91.987 3.45c.39 2.75.695 10.4.677 17-.026 9.969.108 11.08.796 6.565.875-5.739 1.354-6.836 2.49-5.701 1.306 1.306-1.512 14.063-3.454 15.637-1.018.826-2.654 3.956-3.635 6.957-.982 3.001-2.893 7.725-4.248 10.499l-2.463 5.043 2.983-3.5c1.641-1.925 5.669-8.675 8.952-15 5.082-9.79 5.822-11.872 4.983-14-.542-1.375-2.516-8.35-4.388-15.5s-3.083-10.75-2.693-8m62.761-3.493c-.695 1.124 2.234 2.597 3.214 1.617.343-.343-.153-.624-1.102-.624s-1.448-.45-1.108-1 .393-1 .118-1-.78.453-1.122 1.007m10.754-.291c1.513.229 3.987.229 5.5 0s.275-.416-2.75-.416-4.263.187-2.75.416m-5.437.967c.721.289 1.584.253 1.916-.079s-.258-.568-1.312-.525c-1.165.048-1.402.285-.604.604m19.187.71c0 .216.698.661 1.552.989.89.341 1.291.173.941-.393-.587-.951-2.493-1.406-2.493-.596m-28.493 1.596c-.35.566.051.734.941.393 1.732-.665 2.049-1.382.611-1.382-.518 0-1.216.445-1.552.989m42.524-.489c0 .55.436 1.675.969 2.5s.969 1.05.969.5-.436-1.675-.969-2.5-.969-1.05-.969-.5m43.969.291c0 .619-2.137 2.381-4.75 3.917-4.253 2.5-5.696 2.792-13.787 2.792-8.057 0-9.702-.33-15.174-3.042-4.998-2.477-5.956-2.704-5.163-1.222.536 1.001 1.351 1.587 1.811 1.303.461-.285.775.263.7 1.216-.083 1.045 1.252 2.457 3.363 3.557 4.784 2.492 17.448 1.842 24.676-1.268 5.241-2.255 10.199-6.503 8.995-7.707-.369-.369-.671-.164-.671.454M86 142c.825.533 1.95.969 2.5.969s.325-.436-.5-.969-1.95-.969-2.5-.969-.325.436.5.969m5.75 1.662c.688.278 1.813.278 2.5 0 .688-.277.125-.504-1.25-.504s-1.937.227-1.25.504M143 146.5c1.866 1.925 3.617 3.5 3.892 3.5s-1.026-1.575-2.892-3.5-3.617-3.5-3.892-3.5 1.026 1.575 2.892 3.5m47.543.431c-.317.512-.118 1.213.441 1.559s1.016-.074 1.016-.931c0-1.757-.6-2.015-1.457-.628m-79.556 2.583c-5.321 5.664-2.842 20.486 3.427 20.486 3.229 0 5.297-2.211 6.602-7.06 1.377-5.114.302-10.713-2.618-13.633-2.95-2.95-4.486-2.907-7.411.207M123 159v11h3.941c5.173 0 6.415-1.951 1.368-2.15-3.384-.133-3.474-.197-.809-.577 4.048-.576 5.69-2.273 2.2-2.273-2.033 0-2.7-.494-2.7-2q0-2 2-2c3.277 0 2.267-1.84-1.25-2.277l-3.25-.403 3.25-.16c3.467-.171 4.618-2.16 1.25-2.16-1.111 0-2-.667-2-1.5s.889-1.5 2-1.5c3.277 0 2.267-1.84-1.25-2.277l-3.25-.403 3.25-.16c4.683-.231 4.013-2.16-.75-2.16h-4zm-7-8.622c0 .207.787.995 1.75 1.75 1.586 1.243 1.621 1.208.378-.378-1.307-1.666-2.128-2.195-2.128-1.372m31 .935c0 .172 1.463 1.635 3.25 3.25l3.25 2.937-2.937-3.25c-2.738-3.029-3.563-3.71-3.563-2.937m-34.333 2.354c-1.369 1.368-.671 9.084.941 10.423 1.367 1.134 1.818 1.048 3-.569 3.26-4.458-.339-13.457-3.941-9.854m46.146.016c.721.289 1.584.253 1.916-.079s-.258-.568-1.312-.525c-1.165.048-1.402.285-.604.604m15.937-.021c.688.278 1.813.278 2.5 0 .688-.277.125-.504-1.25-.504s-1.937.227-1.25.504m-8.988 1.045c1.244.239 3.044.23 4-.02s-.062-.446-2.262-.435-2.982.216-1.738.455m18.679.848c-1.864 1.494-1.852 1.512.309.465 1.238-.6 2.25-1.3 2.25-1.555 0-.765-.519-.544-2.559 1.09M88.5 159c.995 1.1 2.035 2 2.31 2s-.315-.9-1.31-2-2.035-2-2.31-2 .315.9 1.31 2m9.764-.282c1.52.229 3.77.223 5-.014s-.014-.425-2.764-.418-3.756.202-2.236.432m37.736-.34c0 .207.787.995 1.75 1.75 1.586 1.243 1.621 1.208.378-.378-1.307-1.666-2.128-2.195-2.128-1.372m37.813 1.305c.721.289 1.584.253 1.916-.079s-.258-.568-1.312-.525c-1.165.048-1.402.285-.604.604m-9.563 1.033c1.512.229 3.988.229 5.5 0s.275-.416-2.75-.416-4.262.187-2.75.416m-52.076 5.887c.896.896 2.109 1.464 2.695 1.263s-.147-.935-1.629-1.629c-2.491-1.168-2.572-1.14-1.066.366M88.5 167c-1.63.701-1.688.872-.309.93.93.038 1.969-.38 2.309-.93.711-1.15.676-1.15-2 0m48 0c-1.63.701-1.688.872-.309.93.93.038 1.969-.38 2.309-.93.711-1.15.676-1.15-2 0m-33.75 6.558c-.412.426-.75 5.875-.75 12.109V197h7.365c5.937 0 7.876-.402 10-2.073 2.9-2.28 3.383-5.522 1.256-8.43-.834-1.141-1.19-3.292-.901-5.447.675-5.03-1.778-6.947-9.825-7.683-3.517-.321-6.733-.235-7.145.191m27.162 1.722C119.4 182.364 123.839 197 136.5 197c7.308 0 12.5-4.682 12.5-11.272 0-5.226-2.244-9.141-6.357-11.093-4.742-2.25-8.735-2.048-12.731.645m22.755-1.613c-.367.366-.667 5.766-.667 12 0 9.407.255 11.333 1.5 11.333 1.239 0 1.5-1.839 1.5-10.55V175.9l5.73.3c5.243.274 5.813.535 6.699 3.066.775 2.214.607 3.111-.842 4.5-1.734 1.661-1.753 1.639-.456-.519 2.105-3.503.129-5.684-5.483-6.052L156 176.89v4.055c0 3.996.053 4.055 3.634 4.055 3.918 0 6.616 2.336 10.038 8.689.98 1.821 2.355 3.311 3.055 3.311 1.766 0 1.669-.327-1.744-5.874-2.982-4.846-2.997-4.939-1.264-7.959 1.697-2.957 1.686-3.147-.323-5.838-1.142-1.53-3.161-3.085-4.486-3.456-3.227-.902-11.409-1.04-12.243-.206m24 0c-.367.366-.667 5.766-.667 12 0 9.407.255 11.333 1.5 11.333 1.238 0 1.5-1.833 1.5-10.5 0-5.775.4-10.5.889-10.5s4.201 3.792 8.25 8.426c4.048 4.634 7.715 8.459 8.147 8.5s.658-4.203.5-9.431c-.325-10.811-2.023-12.816-2.786-3.292l-.5 6.238-5.928-6.721c-5.544-6.285-8.842-8.116-10.905-6.053m22.016-.017c-.375.376-.683 5.333-.683 11.017S197.622 195 197.16 195s-4.174-3.793-8.25-8.429-7.748-8.461-8.16-8.5-.75 4.242-.75 9.512c0 7.225.308 9.48 1.25 9.162.819-.277 1.25-2.546 1.25-6.585 0-3.39.225-6.159.5-6.153s2.975 2.917 6 6.47c4.706 5.527 5.933 6.427 8.5 6.241l3-.218.286-10.914c.263-10.064-.372-13.667-2.103-11.936m-61.625 2.298c4.842 1.469 6.785 3.045 7.892 6.4 2.037 6.171-2.064 11.652-8.718 11.652-7.906 0-11.325-10.22-5.155-15.411 1.692-1.424 2.571-2.589 1.954-2.589s-2.226 1.105-3.576 2.455c-1.872 1.871-2.455 3.512-2.455 6.911 0 3.748.489 4.867 3.077 7.045 7.576 6.375 18.941-.382 16.276-9.676-1.019-3.554-6.414-7.785-9.751-7.649-1.805.074-1.74.196.456.862M105 185.5v9.5h5.066c2.786 0 5.936-.466 7-1.035 2.648-1.417 2.606-6.535-.066-7.965-1.864-.998-1.894-1.233-.429-3.468 2.151-3.283.436-6.572-3.356-6.432l-2.715.099 2.5.696c1.938.539 2.5 1.352 2.5 3.618 0 2.549-.512 3.073-4 4.092l-4 1.169 4.398.363c5.052.417 7.308 2.722 5.494 5.613-.765 1.219-2.665 1.842-6.264 2.053l-5.167.303.27-9.054c.148-4.98-.069-9.054-.481-9.053s-.75 4.276-.75 9.501m-19-4.45v4.05l5.512-.3c6.565-.357 7.774-2.171 1.738-2.607-2.894-.21-4.25-.768-4.25-1.75C89 179.4 90.246 179 93.5 179c2.475 0 4.5-.45 4.5-1 0-.556-2.667-1-6-1h-6zm23-.05c0 2.289.375 2.405 3.094.95 2.302-1.232 1.63-2.95-1.153-2.95-1.274 0-1.941.687-1.941 2m22.956-.447c-3.707 4.467.548 12.26 5.981 10.954 4.862-1.169 6.508-5.998 3.506-10.284-1.859-2.655-7.509-3.054-9.487-.67M159 181c0 1.646.518 2.065 2.25 1.82 1.238-.176 2.25-.995 2.25-1.82s-1.012-1.644-2.25-1.82c-1.732-.245-2.25.174-2.25 1.82m-94-.059c0 1.437 1.637 2.135 3.41 1.455 2.441-.937 1.887-2.396-.91-2.396-1.375 0-2.5.423-2.5.941m10.022 5.142c.012.78.94 2.542 2.06 3.917l2.038 2.5-1.687-3.5c-2.064-4.28-2.439-4.735-2.411-2.917m5.119 2.28c.706 1.575 1.465 2.319 1.687 1.652.222-.666-.355-1.955-1.283-2.863-1.579-1.546-1.605-1.469-.404 1.211M86 190v4h6c4.667 0 6-.333 6-1.5 0-1.111-1.167-1.5-4.5-1.5s-4.5-.389-4.5-1.5c0-1.08 1.105-1.5 3.941-1.5 2.168 0 4.219-.45 4.559-1 .386-.625-1.656-1-5.441-1H86zm70 1.5c0 4.222.348 5.5 1.5 5.5 1.088 0 1.5-1.119 1.5-4.073 0-3.341.315-4.013 1.75-3.737.962.186 2.837 2.019 4.167 4.074 3.378 5.219 5.802 5.066 3.117-.198Q164.428 186 158.777 186c-2.699 0-2.777.153-2.777 5.5m-47-1.434c0 1.663.535 2.005 2.741 1.75 1.654-.19 2.874-1.011 3.074-2.066.258-1.359-.355-1.75-2.742-1.75-2.439 0-3.073.426-3.073 2.066m-33.997 7.741c.005.884 12.231 9.292 12.754 8.77.215-.215-1.017-2.333-2.736-4.707-2.536-3.501-3.777-4.357-6.574-4.536-1.896-.121-3.445.092-3.444.473m32.247.911c-1.485.533-1.697 4.282-.242 4.282.608 0 .526.773-.205 1.944-.99 1.585-.913 2.278.414 3.75 1.421 1.576 1.452 2.125.241 4.306-.763 1.375-1.403 3.239-1.423 4.143-.04 1.865 2.6 3.257 3.479 1.834.345-.557 1.347-.456 2.476.249 1.549.967 2.276.843 3.954-.675 1.131-1.024 2.056-1.372 2.056-.773 0 1.689 3.928 2.527 5.548 1.182 1.892-1.57 1.864-4.865-.048-5.598-.825-.317-1.5-.978-1.5-1.469s.675-.893 1.5-.893c.833 0 1.5-.889 1.5-2q0-2-2-2c-1.1 0-2-.45-2-1s.675-1 1.5-1c.833 0 1.5-.889 1.5-2 0-1.1-.653-2-1.45-2-.798 0-1.878-.764-2.401-1.698-.822-1.469-1.458-1.543-4.703-.547-2.107.647-4.452.793-5.349.333-.878-.45-2.159-.616-2.847-.37m19.733.803c-.694.836-.842 2.292-.374 3.681.787 2.335.761 3.75-.175 9.548-.387 2.395-.149 3.25.904 3.25.786 0 1.664.9 1.952 2 .699 2.674 3.753 2.553 4.466-.176l.569-2.177.806 2.177c.634 1.716 1.614 2.176 4.637 2.176 5.722 0 8.31-3.229 3.982-4.969-1.724-.693-1.841-.919-.5-.968 1.062-.038 1.75-.849 1.75-2.063s-.688-2.025-1.75-2.063c-1.341-.049-1.224-.275.5-.968 2.698-1.085 2.88-2.502.5-3.889-.971-.566-1.194-1.033-.5-1.05 1.742-.042 1.577-4.03-.167-4.03-.779 0-1.62-.562-1.869-1.25-.359-.991-.911-.979-2.662.057-1.396.827-2.64.967-3.38.382-1.808-1.428-7.406-1.214-8.689.332m53.391-.054c-.309.807-.356 2.044-.103 2.75.252.706.084 2.014-.374 2.907-.567 1.107-.232 2.168 1.054 3.331 1.846 1.671 1.842 1.781-.174 5.199-1.884 3.193-1.924 3.627-.469 5.083 1.267 1.266 1.89 1.343 3.053.379.993-.824 1.669-.877 2.109-.165.894 1.448 2.123 1.313 3.859-.423 1.296-1.296 1.618-1.296 2.694 0 2.397 2.888 6.977 1.076 6.977-2.759 0-1.008-.675-2.091-1.5-2.407-.825-.317-1.5-.978-1.5-1.469s.675-.893 1.5-.893c.833 0 1.5-.889 1.5-2 0-1.467-.667-2-2.5-2-1.375 0-2.5-.45-2.5-1s.9-1 2-1q2 0 2-2c0-1.187-.667-2-1.64-2-.902 0-2.177-.735-2.833-1.633-1.033-1.413-1.699-1.465-4.953-.392-2.749.908-4.055.944-4.866.133-1.514-1.514-2.663-1.39-3.334.359m21.673 3.15c-2.275 4.289-2.328 4.704-.748 5.86 1.05.767 1.701 2.606 1.701 4.801 0 5.399.842 6.722 4.278 6.722 2.329 0 4.105-1.085 7.393-4.518 3.593-3.749 4.329-5.18 4.329-8.418 0-6.2-.678-7.064-5.548-7.064-2.384 0-4.612-.45-4.952-1-1.42-2.297-4.117-.785-6.453 3.617m-40.042-1.123c-.682.822-1.023 2.633-.757 4.024s.094 2.771-.382 3.065c-1.272.786-1.055 4.828.334 6.217.66.66 3.183 1.2 5.607 1.2 3.608 0 4.297-.287 3.8-1.582-.334-.87-.607-2.445-.607-3.5s-.567-1.918-1.259-1.918c-.693 0-1.822-.9-2.509-2-1.093-1.751-.999-2 .76-2 2.234 0 2.651-1.957.808-3.8-1.642-1.642-4.3-1.507-5.795.294M188.5 206c-.34.55-.141 1 .441 1s1.059-.45 1.059-1-.198-1-.441-1-.719.45-1.059 1m-76.243 7.237c-.132 1.759.033 1.919.772.75 1.156-1.828 1.227-2.987.184-2.987-.433 0-.863 1.007-.956 2.237m73.743-.678c0 .857.45 1.281 1 .941s1-1.041 1-1.559-.45-.941-1-.941-1 .702-1 1.559M208 214c0 .55.9 1 2 1s2-.45 2-1-.9-1-2-1-2 .45-2 1"/><path fill="#1976D2" fill-opacity=".29" fill-rule="evenodd" d="M127.977 9.583c-1.262 4.505-1.839 5.016-7.727 6.851-1.905.593-2.25.331-2.25-1.712 0-2.401-3.492-6.564-4.587-5.468-.316.316-.089 1.484.506 2.595 2.865 5.353.728 7.327-8.078 7.46-2.663.04-4.841.428-4.841.863 0 1.349 4.934 2.109 9.571 1.473 4.384-.601 4.429-.576 4.429 2.374 0 1.64-.45 2.981-1 2.981s-1 .632-1 1.405-2.025 2.592-4.5 4.042c-3.76 2.203-4.5 3.135-4.5 5.661 0 3.364 1.554 6.892 3.035 6.892.531 0 .965-.86.965-1.911 0-1.858 5.222-7.089 7.077-7.089 2.098 0 .71 3.214-2.071 4.797-3.088 1.757-3.901 3.738-1.817 4.433.654.218-1.596 2.088-5 4.155-5.655 3.435-7.436 5.727-5.42 6.973.424.261 3.219-.387 6.212-1.441S112.469 53 112.525 53c.057 0-.097 2.757-.341 6.126-.354 4.898-.166 6.035.937 5.669.81-.269 1.643-2.588 2.019-5.618.934-7.535 1.164-7.842 8.326-11.089 7.572-3.433 8.715-5.202 5.542-8.58l-2.246-2.39 2.148-2.73c2.635-3.351 1.556-4.81-3.592-4.855-4.653-.042-5.15-1.552-1.242-3.776 2.129-1.212 2.902-2.279 2.534-3.5-.9-2.99 1.913-5.449 6.874-6.008 5.253-.592 5.639-2.575.598-3.069-3.38-.332-3.565-1.153-1.479-6.587.432-1.126.032-1.593-1.366-1.593-1.495 0-2.29 1.117-3.26 4.583m19.179 4.167c-.598 1.512-1.388 4.1-1.756 5.75-.986 4.423-2.993 6.203-8.483 7.52-4.801 1.152-6.224 2.541-3.622 3.54.712.273 3.187-.171 5.5-.988 5.8-2.046 5.287-.154-.795 2.928-2.75 1.394-5 3.196-5 4.006s.889 3.813 1.976 6.674c1.087 2.86 1.875 5.286 1.75 5.39-.124.104-2.589 1.376-5.476 2.827-2.887 1.45-5.25 3.32-5.25 4.156 0 1.295 1.309 1.42 8.878.849 4.882-.369 10.62-.342 12.75.059l3.872.729-3 1.324c-2.851 1.258-2.64 1.328 4.25 1.405 7.617.085 8.882-.804 4.877-3.428-1.878-1.23-11.318-3.455-14.791-3.485-.364-.003-.333-1.243.069-2.756.465-1.747 2.167-3.557 4.664-4.962 4.968-2.795 5.287-5.657.681-6.101-1.787-.173-3.247-.623-3.242-1 .004-.378 1.831-1.729 4.061-3.002 4.882-2.788 4.967-5.442.197-6.185-4.143-.645-3.26-1.984 3.583-5.436 5.556-2.803 5.681-3.127 1.919-4.977-1.248-.614-2.699-2.572-3.225-4.351-1.171-3.961-2.937-4.156-4.387-.486M51.412 37.423c-3.736 1.626-9.237 8.206-12.806 15.318-1.447 2.882-6.028 15.257-10.181 27.5-7.846 23.13-13.483 36.256-19.839 46.192-4.215 6.589-3.72 9.223 1.09 5.798 3.43-2.443 12.525-11.964 14.063-14.723 2.062-3.698 2.291-.864.572 7.086-2.11 9.755-2.434 30.815-.526 34.156 2.102 3.679 3.215 2.59 3.215-3.145 0-5.537 3.289-18.048 5.027-19.122 1.247-.77 1.228 5.908-.043 15.017-1.347 9.66-5.271 20.029-9.883 26.122-2.549 3.368-3.595 5.579-3.054 6.454 1.385 2.241 5.63-.711 15.553-10.812 5.006-5.095 9.325-9.264 9.599-9.264.895 0-1.222 11.129-3.307 17.386-1.121 3.363-3.839 9.417-6.04 13.455-2.202 4.037-3.736 7.609-3.408 7.936.327.328 3.191-2.076 6.363-5.341 4.051-4.169 7.433-9.189 11.363-16.867l5.596-10.932 2.119 4.432c2.917 6.101 1.98 1.388-1.711-8.6-1.632-4.417-3.964-12.292-5.183-17.5-2.882-12.319-4.189-16.056-3.486-9.969.286 2.475 2.128 10.215 4.093 17.2l3.574 12.7-6.168 11.933c-3.45 6.676-7.73 13.417-9.714 15.3-1.95 1.852-3.352 2.917-3.116 2.367.237-.55 1.83-3.941 3.541-7.536 4.482-9.417 6.314-17.035 6.967-28.964.583-10.64-.945-27.041-2.79-29.954-.716-1.131-.83-.74-.425 1.454 2.545 13.795 3.183 27.483 1.283 27.533-.687.019-4.387 3.619-8.221 8S28.233 176 27.835 176c-.399 0 .357-2.363 1.678-5.25 4.124-9.013 5.74-17.364 5.951-30.75.108-6.875.385-13.119.616-13.875s-.066-1.556-.66-1.777-2.667 3.098-4.606 7.375c-6.346 13.994-5.915 13.504-5.307 6.029.471-5.795 3.884-24.492 6.035-33.063.508-2.024.304-2.689-.825-2.689-.825 0-1.798 1.187-2.162 2.638-.662 2.638-13.443 19.807-14.189 19.061-.217-.217.701-2.376 2.042-4.797 3.721-6.722 8.644-19.314 16.572-42.387 7.715-22.451 9.971-27.162 15.967-33.341 3.1-3.194 4.339-3.842 6.545-3.42 1.683.321 3.036.009 3.548-.819 1.898-3.071-2.187-3.881-7.628-1.512m-.007 4.827L49.5 44.5l2.25-1.905C53.864 40.805 54.455 40 53.655 40c-.19 0-1.202 1.013-2.25 2.25M62 41.378c0 .207.788.995 1.75 1.75 1.586 1.243 1.621 1.208.378-.378C62.821 41.084 62 40.555 62 41.378m-4.824 9.846C55.744 52.656 55.611 57 57 57c.55 0 1.007 2.362 1.015 5.25.015 5.611 1.341 10.139 5.401 18.451 2.222 4.548 3.012 5.289 6.292 5.904 2.063.387 5.041 1.488 6.616 2.446 4.727 2.874 16.588 1.236 16.661-2.301.008-.413-.323-.697-.735-.632-3.118.493-6.548-.498-9.068-2.618-1.634-1.375-4.256-2.507-5.826-2.515-3.69-.02-4.995-.906-6.269-4.255-.746-1.964-1.736-2.73-3.527-2.73-2.535 0-4.634-2.543-3.864-4.682.234-.65-.277-2.541-1.135-4.201-.859-1.66-1.561-5.235-1.561-7.945 0-5.324-1.741-8.031-3.824-5.948m34.28 6.556c-2.224 2.046-3.189 3.045-2.145 2.22s2.036-1.275 2.203-1c.168.275 1.278-.737 2.468-2.25 2.876-3.656 2.323-3.43-2.526 1.03m99.12-.442c.733 1.908-1.228 5.662-2.956 5.662-.721 0-2.125-.9-3.12-2-2.344-2.59-3.286-2.526-3.68.25-.257 1.809-.957 2.248-3.573 2.24-3.569-.011-3.897 1.818-.419 2.33 3.793.558 2.367 3.528-3.356 6.992-3.01 1.821-5.472 3.733-5.472 4.25 0 1.325.703 1.179 3.667-.763l2.596-1.701-2.617 4.915c-1.439 2.704-2.234 5.299-1.766 5.767 1.067 1.067 13.12-.227 13.12-1.409 0-.479-.536-.871-1.191-.871s-.318-.661.75-1.468c1.49-1.127 1.593-1.483.441-1.532-1.142-.048-1.023-.441.5-1.647 1.394-1.103 1.619-1.725.744-2.053-2.151-.806-.275-2.3 2.888-2.3h3.013l-2.101-2.671c-2.81-3.573-1.31-5.188 3.278-3.53 1.826.661 3.851 1.201 4.499 1.201 2.254 0 1.16-1.765-1.873-3.022-2.238-.926-2.864-1.693-2.347-2.871 1.17-2.668.979-6.384-.352-6.843-.776-.267-1.031.14-.673 1.074M172 58.09c0 2.107-4.423 4.804-7 4.268-1.764-.367-2.102-.239-1.148.433 1.771 1.249-1.899 3.94-6.568 4.815-1.806.339-3.284 1.017-3.284 1.505 0 1.525 3.908.977 8.03-1.126l3.95-2.016-.213 2.572c-.23 2.782-4.252 5.819-10.649 8.043-2.915 1.014-3.27 1.394-1.829 1.959 1.112.436 3.664-.272 6.75-1.873 5.749-2.983 5.996-2.427 2.371 5.33l-2.571 5.5-2.414-3c-2.734-3.397-3.137-2.777-.947 1.458 1.12 2.165 2.449 3.023 5.474 3.534 3.326.562 3.957 1.037 3.771 2.841-.197 1.915.267 2.167 3.992 2.167 3.899 0 4.434.338 7.123 4.5 3.462 5.359 6.829 9 8.323 9 .729 0 .759-.409.092-1.25-4.17-5.258-9.245-12.377-9.249-12.974-.002-.399 1.346-1.423 2.996-2.276s3-2.266 3-3.138c0-1.362-1.316-1.536-9.25-1.225-10.536.413-10.125.944-6.69-8.637 1.184-3.3 2.132-7.686 2.109-9.747-.036-3.119.533-4.186 3.394-6.369 3.574-2.726 4.53-5.384 1.937-5.384-.825 0-1.5.49-1.5 1.09m-73.901 2.305c-1.654 1.76-1.924 2.595-1.02 3.154.789.487.974.346.516-.394C97.203 62.52 97.25 62 97.7 62c.451 0 1.381-.9 2.068-2 1.664-2.664 1.073-2.525-1.669.395M39.02 64.96c-1.111 2.178-2.005 4.541-1.987 5.25.018.71.975-.848 2.127-3.46S41.648 62 42.127 62c1.178 0 1.111 8.243-.091 11.406-.53 1.395-1.667 6.711-2.525 11.815-.859 5.103-1.823 10.629-2.142 12.279-.415 2.148-.27 2.706.512 1.964 2.071-1.966 5.228-16.994 5.823-27.714.527-9.512.408-10.75-1.034-10.75-.896 0-2.538 1.782-3.65 3.96M72 62.941c0 .518.445 1.216.989 1.552.566.35.734-.051.393-.941C72.717 61.82 72 61.503 72 62.941m31.627 1.309c-.78 1.237-1.718 3.255-2.085 4.483-.62 2.08-.822 2.13-2.963.727-3.292-2.157-4.901-.071-3.559 4.611 2.658 9.266-.543 17.375-11.107 28.14-8.622 8.786-12.522 14.852-13.997 21.774-.837 3.927-.576 5.618 2.008 12.984 1.634 4.658 2.795 8.645 2.581 8.86-.999.998-9.345-13.894-11.894-21.222-.362-1.041-.891-1.66-1.176-1.375s.218 2.359 1.118 4.609 1.435 4.668 1.187 5.375c-.889 2.542 11.772 36.73 16.837 45.462 2.414 4.163 3.246 7.948 1.51 6.876-3.479-2.15-16.41-25.634-19.577-35.554-1.493-4.677-3.51-8.628-3.51-6.875 0 4.258 11.496 29.371 15.091 32.966 1.266 1.266 1.939 3.067 1.765 4.727-.358 3.425 4.768 14.405 10.087 21.604 2.266 3.068 3.726 5.578 3.244 5.578s-3.534-1.722-6.782-3.827c-6.26-4.058-9.514-7.173-7.492-7.173.834 0 .869-.54.122-1.934-1.374-2.567-1.306-3.34.215-2.465.726.418.901.338.417-.191-.459-.5-1.321-.91-1.917-.91s-1.292-.625-1.546-1.389c-.317-.95-.027-1.137.916-.59.815.472 1.039.427.547-.111-.459-.5-1.246-.91-1.75-.91-.505 0-.917-.338-.917-.75v-2.309c0-.857.419-1.3.931-.984s1.256.049 1.654-.595c.474-.767.289-.902-.538-.391-.932.576-1.081.212-.572-1.394 1.043-3.286-1.108-5.077-6.097-5.077H62v8h4c2.2 0 4 .437 4 .97 0 .534-1.688.871-3.75.75l-3.75-.22-.302 5.25c-.243 4.208.005 5.25 1.25 5.25 1.097 0 1.552-.992 1.552-3.387v-3.387l7.25 7.205c5.273 5.24 9.52 8.346 15.573 11.387 4.578 2.3 8.611 4.182 8.963 4.182s-1.408-2.137-3.911-4.75C87.64 202.783 84 198.115 84 196.865c0-.476 1.253-.865 2.784-.865 2.059 0 4.208 1.452 8.25 5.574 3.006 3.065 6.366 6.021 7.466 6.568s.319-.612-1.735-2.574S97.318 202 97.67 202s-.158-.882-1.134-1.96-2.227-1.866-2.78-1.75c-.553.115-1.179-.254-1.391-.821s.82-1.131 2.294-1.253c5.564-.46 3.394-1.216-3.492-1.216H84v-19.909l6.75-.349 6.75-.35-7.184-.196c-7.135-.195-7.186-.178-7.56 2.554-.327 2.391-.854 1.739-4.041-5-7.282-15.401-16.482-43.812-10.379-32.056C70.583 144.023 79.802 155 81.191 155c.64 0 .427-.764-.496-1.784C79.259 151.629 74 140.78 74 139.403c0-.296 1.317.399 2.927 1.545 9.214 6.561 15.778 7.339 30.126 3.571 12.169-3.196 22.047-3.349 26.947-.417 1.925 1.152 6.875 5.582 11 9.844 6.964 7.196 7.99 7.88 14.358 9.579 6.014 1.605 7.615 1.676 13 .578 17.512-3.571 26.212-12.08 23.456-22.938-1.504-5.923-5.899-10.461-14.531-15.002-10.801-5.681-12.663-7.063-16.773-12.447-1.981-2.594-4.101-4.716-4.711-4.716s-.255 1.013.789 2.25c1.613 1.912 1.471 1.874-.94-.25-1.561-1.375-3.497-3.85-4.303-5.5l-1.465-3 1.991 2.485c1.096 1.367 2.198 2.267 2.449 2 .252-.267-1.137-2.51-3.086-4.985s-3.188-3.6-2.753-2.5c.434 1.1.727 3.098.65 4.44-.166 2.891 4.007 9.234 8.306 12.623l3.063 2.415-3.07.011c-3.2.011-6.65-2.956-7.856-6.757-1.241-3.91-5.019-7.211-8.582-7.5-2.856-.232-3.846-.97-5.707-4.256-2.7-4.766-2.858-6.476-.601-6.476 2.947 0 10.2 4.061 10.837 6.067.338 1.063 1.049 1.933 1.582 1.933 2.577 0-6.12-9.904-8.757-9.971-.755-.019-1.384-3.738-1.821-10.779-.823-13.244-1.443-15.394-4.924-17.09-2.212-1.078-3.33-1.101-5.71-.115-4.391 1.819-6.567 5.236-8.363 13.131C119.663 85.375 117.523 90 115.593 90c-.746 0-2.584-1.61-4.084-3.578l-2.729-3.577 1.61-5.738c2.099-7.482 2.035-11.412-.219-13.452-2.523-2.283-4.863-2.071-6.544.595m1.875-.253c-.341.552.073 1.003.92 1.003 2.446 0 2.953 4.601 1.197 10.86-.89 3.174-1.626 6.867-1.634 8.206-.012 1.816-.242 2.076-.908 1.025-.49-.775-.671-1.986-.401-2.69s.017-2.094-.562-3.09c-.628-1.08-1.065-1.282-1.084-.502-.061 2.623-2.03-.008-2.03-2.713 0-2.628-3.397-7.032-4.542-5.887-.291.291 3.159 7.338 7.668 15.66C110.815 98.215 112.723 101 114.495 101c1.907 0 2.172-.548 2.172-4.5 0-2.547-.47-4.512-1.084-4.527-.596-.015-2.794-1.617-4.884-3.56l-3.801-3.534 2.085-8.044c1.147-4.425 1.814-8.898 1.483-9.941-.752-2.371-4.087-4.317-4.964-2.897m-1.835 2.67c-1.163 1.163-.719 7.879.644 9.744 1.189 1.625 1.427 1.405 2.554-2.353.683-2.281.962-5.026.621-6.102-.614-1.934-2.528-2.58-3.819-1.289m26.635.345c-2.626 1.058-4.867 5.092-5.844 10.523-.392 2.181-1.781 6.539-3.085 9.685C118.62 93.856 118.2 100 120.5 100c.825 0 1.5-.693 1.5-1.54s.862-3.229 1.915-5.293 2.61-6.434 3.46-9.71c1.552-5.986 6.528-12.253 8.673-10.927 1.594.985 1.061-3.278-.619-4.959-1.768-1.767-2.051-1.798-5.127-.559M76 69.378c0 .207.787.995 1.75 1.75 1.586 1.243 1.621 1.208.378-.378C76.821 69.084 76 68.555 76 69.378M80.5 75c.995 1.1 2.035 2 2.31 2s-.315-.9-1.31-2-2.035-2-2.31-2 .315.9 1.31 2m52.088 2.25c-.802 1.237-2.003 4.5-2.67 7.25s-2.047 6.67-3.066 8.71S125 97.128 125 97.382s2.894-.965 6.431-2.71c7.142-3.522 7.21-3.689 5.921-14.422-.691-5.754-2.316-6.777-4.764-3M53.296 86c.296 4.675 1.426 11.2 2.511 14.5l1.974 6-.39-5.5-.39-5.5 2.396 7 2.396 7 .103-5.75c.121-6.706 1.626-7.677 2.325-1.5.264 2.338 1.367 6.275 2.451 8.75l1.97 4.5-.071-8.669c-.062-7.559-.359-8.977-2.321-11.065C65.013 94.449 64 92.862 64 92.24s-1.225-1.718-2.722-2.435c-1.749-.839-3.28-2.818-4.286-5.541-.861-2.331-2.165-4.806-2.899-5.5-1.11-1.051-1.244.172-.797 7.236m163.255-3.582c.568 3.029.374 3.468-1.705 3.864-1.568.298-1.103.491 1.404.582 4.113.149 4.258-.109 2.652-4.715-1.476-4.234-3.16-4.042-2.351.269M46.764 85c-.405 1.375-.698 4.75-.65 7.5l.087 5 .94-4c.518-2.2.81-5.575.65-7.5-.269-3.235-.347-3.311-1.027-1m-13.776 3.683c-.666 2.099-1.914 4.942-2.774 6.317-1.436 2.297-1.431 2.392.059 1.171 1.816-1.487 5.317-9.914 4.471-10.76-.3-.3-1.09 1.173-1.756 3.272M205 86.843c0 .582.787 1.504 1.75 2.05 1.639.929 1.623 1.086-.25 2.478-2.113 1.57-1.952 1.734 3 3.039 1.1.29-1.779.325-6.397.079-8.833-.472-9.753.242-2.783 2.163 3.839 1.058 3.935 1.161 1.18 1.265-1.65.063-3.62.506-4.378.987-1.614 1.021-.651 3.096 1.437 3.096.793 0 1.441.45 1.441 1s-1.35 1-3 1c-2.762 0-3 .278-3 3.5 0 4.003 1.393 4.471 3.941 1.324 1.02-1.26 4.343-2.882 7.895-3.854l6.134-1.679-3.519 3.895c-4.636 5.131-3.402 6.906 1.636 2.354 3.547-3.204 6.913-4.601 6.913-2.868 0 .931-9.746 12.354-12.756 14.952-1.61 1.389-2.074 2.363-1.341 2.816 1.194.738 3.456-1.4 11.906-11.251 4.271-4.979 5.884-6.189 8.25-6.189 1.618 0 2.941-.45 2.941-1 0-.873-3.437-1.374-9.25-1.349-4.29.019.415-3.569 6.645-5.066 2.12-.51 2.597-.993 1.785-1.805-.813-.813-2.86-.366-7.653 1.671-5.314 2.258-6.823 2.548-8.035 1.542-1.814-1.505-1.959-3.182-.242-2.808 1.329.289 5.75-3.099 5.75-4.407 0-.428-1.463-.785-3.25-.793-2.466-.012-2.888-.249-1.75-.985.825-.533 2.738-.976 4.25-.985 4.143-.023 3.303-1.543-1.5-2.713-2.338-.57-5.037-1.369-6-1.776-1.03-.435-1.75-.305-1.75.317m-103.056.24c-.03.23-1.104 6.942-2.386 14.917s-1.994 14.865-1.583 15.311c.411.447 3.498-2.634 6.86-6.845l6.112-7.657-4.144-7.655c-4.375-8.081-4.77-8.736-4.859-8.071M173 90c0 1.264 2.043 1.264 4 0 1.169-.755.893-.973-1.25-.985-1.512-.008-2.75.435-2.75.985m-5.312.646c-1.305 1.304-.682 2.354 1.395 2.354 1.164 0 1.909-.524 1.688-1.187-.487-1.462-2.157-2.094-3.083-1.167m-95.924 3.15c-.317 1.211-.168 2.454.33 2.762S73 98.63 73 100.477c0 1.848.336 4.184.747 5.191.561 1.376.872.838 1.25-2.158.375-2.976 1.012-4.086 2.503-4.366 1.862-.349 3.449-1.832 3.485-3.255.008-.336-1.51-.489-3.373-.342-2.635.209-3.598-.2-4.33-1.842l-.942-2.111zm-21.685 1.787c.048 1.165.285 1.402.604.605.289-.722.253-1.585-.079-1.917s-.568.258-.525 1.312m40.502 3.332c-2.621 2.736-2.718 3.14-1.579 6.592.668 2.022 1.565 3.298 1.995 2.835C91.645 107.643 94.04 96 93.535 96c-.088 0-1.418 1.312-2.954 2.915m37.669-.253c-1.806.729-1.604 1.835 1.905 10.416 3.009 7.362 3.324 7.743 6.849 8.307 6.914 1.105 11.996 7.129 11.996 14.22 0 2.992.735 4.404 3.822 7.34 3.584 3.41 13.386 7.662 15.149 6.573.422-.261 1.075-4.196 1.451-8.746s.889-8.975 1.139-9.834c.384-1.321-.7-1.552-7.024-1.5-7.106.059-7.617-.091-10.289-3.01-1.546-1.69-3.431-4.952-4.189-7.25-.759-2.298-1.757-4.234-2.219-4.303a24 24 0 0 1-1.84-.375c-.55-.138-2.569-.306-4.486-.375-3.217-.115-3.718-.587-6.514-6.125-3.014-5.971-3.368-6.299-5.75-5.338m-16.3 13.037c-8.15 9.889-8.094 10.107 2.651 10.231 5.838.067 12.39-1.4 12.407-2.778.019-1.522-6.44-16.152-7.131-16.152-.417 0-3.984 3.914-7.927 8.699m-30.899-2.644c-4.198 4.978-4.234 5.086-2.407 7.141 3.173 3.567 9.332 5.758 16.256 5.782l6.4.022-3.9-2.864c-5.382-3.953-8.036-7.02-9.866-11.4-.858-2.055-1.709-3.736-1.891-3.736s-2.248 2.275-4.592 5.055m149.517 9.793c-2.102 4.662-1.166 7.274 3.462 9.667 3.947 2.041 3.745 2.632-.78 2.278-3.18-.248-3.751.011-3.755 1.707-.005 1.55-.674 2-2.979 2-4.147 0-4.317 2.518-.467 6.903 3.122 3.556 3.131 3.597.805 3.632l-2.354.036 2.5 1.429c5.889 3.366 6.634.769 1.5-5.229-4.057-4.74-4.208-5.271-1.5-5.271 1.1 0 2 .48 2 1.067 0 .588.84.801 1.868.475 1.027-.326 3.09-.128 4.584.44 3.61 1.372 4.725.501 3.317-2.589-1.828-4.013.654-4.719 6.383-1.816 5.829 2.954 6.217 2.981 4.798.33-1.014-1.895-.859-4.027.665-9.157.764-2.573-1.477-2.165-6.532 1.189l-4.418 2.931-3.765-1.921c-4.925-2.513-5.294-3.286-3.356-7.035.988-1.909 1.266-3.504.708-4.062s-1.612.619-2.684 2.996m-166.638.343c-.067 2.181-.118 2.198-.93.309-.593-1.38-.881-1.527-.93-.473-.038.841.589 2.469 1.395 3.619.805 1.15 1.223 2.333.927 2.628-.295.296.422 2.267 1.594 4.382s1.906 3.087 1.63 2.162-.811-4.423-1.19-7.773c-.683-6.035-2.361-9.298-2.496-4.854m10.189.896c-1.684 4.832-1.345 11.03.795 14.54C77.336 138.599 87.835 144 93.133 144c3.173 0 4.552-.738 8.206-4.392 7.859-7.858 28.675-17.64 34.071-16.01 4.417 1.335 6.59 4.473 6.59 9.517 0 2.622-.397 5.012-.882 5.312-.486.3-2.112-.421-3.614-1.602-2.618-2.06-3.057-2.096-10.613-.869-7.026 1.141-8.155 1.101-10.405-.373-2.429-1.592-2.688-1.54-6.954 1.395-4.977 3.425-7.028 5.82-3.946 4.611 1.053-.413 5.289-1.414 9.414-2.224 13.677-2.685 20.46-.255 31.349 11.229 8.648 9.121 12.582 10.872 22.891 10.19 11.998-.793 21.813-6.343 22.989-12.999l.48-2.714-2.816 2.005c-4.995 3.557-13.87 6.007-21.992 6.072-7.862.062-11.831-1.204-15.098-4.814-2.809-3.103-5.758-10.593-5.781-14.683-.045-7.914-5.024-13.651-11.845-13.651-1.608 0-5.117.985-7.8 2.189-4.413 1.98-6.589 2.194-22.877 2.25-19.14.065-21.424-.408-27.131-5.618-2.129-1.944-2.131-1.944-3.25 1.266m-29.04 4.496c.048 1.165.285 1.402.604.605.289-.722.253-1.585-.079-1.917s-.568.258-.525 1.312m4.921-.701c0 .55.45 1.278 1 1.618s1 .168 1-.382-.45-1.278-1-1.618-1-.168-1 .382m-19.333 1.785c-.367.366-.667 1.131-.667 1.7 0 .626.466.567 1.183-.15.651-.651.951-1.416.667-1.7s-.817-.217-1.183.15m99.079.483c-2.065.451-6.061 1.99-8.881 3.418-4.695 2.379-4.992 2.733-3.531 4.195 1.388 1.388 2.43 1.442 7.996.416 8.52-1.57 10.669-1.49 12.841.476 1.738 1.573 1.828 1.486 1.814-1.75-.009-1.873-.355-3.939-.771-4.592-1.301-2.047-5.554-3.019-9.468-2.163m-91.971 2.409c-.326.325-.183 2.017.316 3.76 1.135 3.955 1.108 16.701-.048 22.681-1.078 5.577-.675 6.123 1.465 1.985 2.902-5.612 1.325-31.484-1.733-28.426m138.771 5.691c-.358 3.438-.888 7.488-1.178 9-.56 2.923-.007 3.146 4.61 1.861 2.177-.607 2.442-1.173 2.189-4.677-.158-2.193.177-5.207.744-6.699.932-2.452.75-2.859-1.89-4.224-1.607-.831-3.125-1.511-3.373-1.511s-.744 2.813-1.102 6.25M58.031 132.5c0 .55.436 1.675.969 2.5s.969 1.05.969.5-.436-1.675-.969-2.5-.969-1.05-.969-.5m130.999 5.05c.027 2.586.163 2.722 1.104 1.104.769-1.324.761-2.159-.03-2.95-.805-.805-1.096-.305-1.074 1.846M50 138.059c0 1.132.43 1.793.956 1.468s.703-1.252.393-2.059c-.793-2.067-1.349-1.824-1.349.591m101.438 4.822c.82 1.584 2.891 4.059 4.603 5.5 2.771 2.332 3.961 2.619 10.854 2.619 12.015 0 24.038-4.594 24.956-9.535.35-1.886.27-1.879-1.993.168-4.891 4.424-8.979 5.784-17.358 5.773-8.159-.011-16.813-2.668-19.591-6.016-2.042-2.46-3.007-1.481-1.471 1.491M53.53 148.75c1.68 12.224 6.673 25.25 9.679 25.25 1.11 0 1.63-.451 1.243-1.078-.367-.593-1.942-5.509-3.5-10.925-2.666-9.26-6.323-17.997-7.534-17.997-.297 0-.247 2.137.112 4.75m32.505 1.184c-1.676 3.133-1.205 6.213 1.56 10.204 2.961 4.271 2.525 6.529-.906 4.701-1.979-1.055-2.058-1.007-.817.497 3.199 3.878 6.089.423 3.628-4.336-.817-1.58-1.939-3.153-2.493-3.496-1.481-.915-1.226-6.078.366-7.399.756-.627 2.179-.83 3.164-.452 1.23.472 1.564.32 1.068-.483-1.129-1.827-4.425-1.374-5.57.764m11.14 2.816L97 158h7l-.175-5.25c-.167-5.019-.191-5.063-.557-1-.334 3.705-.689 4.25-2.768 4.25s-2.434-.545-2.768-4.25c-.366-4.063-.39-4.019-.557 1m13.422-2.5c-4.835 7.508-1.015 21.287 5.342 19.269 5.094-1.616 6.834-14.798 2.575-19.504-2.423-2.677-6.112-2.568-7.917.235M123 158.441c0 5.743.338 10.605.75 10.807s2.325.061 4.25-.31l3.5-.675-3.788-.131-3.787-.132.287-9.25.288-9.25 2.654.309c1.46.17 2.95-.167 3.31-.75.419-.679-.803-1.059-3.405-1.059H123zm10.975-7.876c-1.425 3.749-1.246 4.756 1.582 8.925 2.751 4.053 2.687 7.788-.093 5.48-.832-.69-1.737-1.03-2.012-.755-.935.935 2.515 3.012 4.035 2.428 2.242-.86 1.845-3.556-1.161-7.894-2.219-3.202-2.509-4.317-1.707-6.554.66-1.84 1.651-2.671 3.124-2.621 1.187.041 1.928-.297 1.648-.75-1.122-1.817-4.473-.74-5.416 1.741M95.37 159c0 5.775.165 8.137.367 5.25s.202-7.613 0-10.5-.367-.525-.367 5.25m10 0c0 5.775.165 8.137.367 5.25s.202-7.613 0-10.5-.367-.525-.367 5.25m6.107-7.606c-3.953 6.033-2.097 16.606 2.915 16.606 3.381 0 5.608-3.49 5.608-8.788 0-8.593-5.006-13.185-8.523-7.818M55.66 154c.83 4.647 4.399 14.274 5.05 13.623.283-.283-.211-2.644-1.098-5.247-.886-2.603-1.612-5.466-1.612-6.363s-.667-2.504-1.482-3.572c-1.376-1.801-1.438-1.689-.858 1.559m31.649-1.364c-.345.9-.111 2.362.519 3.25 3.121 4.394 4.292 7.499 3.708 9.828-.528 2.104-1.096 2.431-3.582 2.066-3.433-.504-3.977.76-.766 1.78 1.619.513 2.681.086 4.082-1.646 2.232-2.755 1.784-6.625-1.262-10.903-2.639-3.706-2.596-5.332.117-4.471 1.43.454 1.902.312 1.441-.433-1.02-1.65-3.54-1.337-4.257.529m24.891-.436c-.66.66-1.2 1.835-1.2 2.611 0 .897.727.552 1.999-.95 1.962-2.317 2.028-2.325 3.5-.42 1.629 2.106 1.991 8.237.616 10.407-1.588 2.506-4.504.806-5.758-3.356-.662-2.196-1.238-3.19-1.28-2.21-.128 2.964 2.721 8.718 4.315 8.718 2.213 0 4.608-3.99 4.608-7.675 0-6.563-3.595-10.33-6.8-7.125m12.8 2.3c0 3.237.23 3.5 3.059 3.5 1.785 0 2.802-.417 2.441-1-.34-.55-1.491-1-2.559-1s-1.941-.675-1.941-1.5c0-.933.944-1.5 2.5-1.5 1.375 0 2.5-.45 2.5-1s-1.35-1-3-1c-2.762 0-3 .278-3 3.5m10.579-1.845c-.379.986.387 3.131 1.893 5.304 3.968 5.726 3.009 10.748-1.874 9.815-2.123-.406-2.402-.243-1.484.863 1.492 1.798 3.382 1.724 5.315-.208 2.299-2.3 1.922-6.633-.946-10.858-2.552-3.761-2.473-6.165.17-5.151.81.311 1.181.121.84-.431-.955-1.546-3.213-1.161-3.914.666M97.175 164.25c.167 5.019.191 5.063.557 1 .334-3.705.689-4.25 2.768-4.25s2.434.545 2.768 4.25c.366 4.063.39 4.019.557-1L104 159h-7zM125 163c0 2.749.272 2.987 3.25 2.85 3.025-.139 3.06-.179.5-.566-1.869-.283-2.75-1.015-2.75-2.284s.881-2.001 2.75-2.284c2.56-.387 2.525-.427-.5-.566-2.978-.137-3.25.101-3.25 2.85m-76.842 2c0 1.375.227 1.938.504 1.25.278-.687.278-1.812 0-2.5-.277-.687-.504-.125-.504 1.25m-1.079 5.583c.048 1.165.285 1.402.604.605.289-.722.253-1.585-.079-1.917s-.568.258-.525 1.312M103 185v11l4.25-.168 4.25-.168-3.75-.392-3.75-.393V175h5.066c6.612 0 8.934 1.293 8.934 4.976 0 1.598-.483 3.205-1.073 3.569-.672.415-.297 1.208 1 2.116 2.275 1.594 2.864 6.732.91 7.94-.639.395-2.552 1.05-4.25 1.456-2.795.668-2.848.748-.56.841 5.581.226 9.454-6.594 5.573-9.815-.945-.784-1.233-2.404-.886-4.986.693-5.167-2.009-7.097-9.937-7.097H103zm25.4-7.6c-2.851 2.851-3.4 4.12-3.4 7.865 0 2.963.678 5.328 2.016 7.028 2.059 2.617 8.009 5.202 10.243 4.45.682-.23-.419-.732-2.449-1.115-8.355-1.576-11.764-11.828-5.887-17.705 2.393-2.393 3.767-2.923 7.577-2.923s5.184.53 7.577 2.923c2.346 2.346 2.917 3.777 2.891 7.25-.036 4.892-1.362 7.109-5.563 9.3-1.664.868-2.215 1.517-1.29 1.521 2.794.01 6.792-3.951 7.976-7.904 2.255-7.525-3.402-14.09-12.141-14.09-3.386 0-4.776.626-7.55 3.4m24.812 7.85.213 11.25.321-10.75.322-10.75h5.466c4.133 0 5.954.488 7.466 2 2.511 2.511 2.518 4.072.029 7.236-1.928 2.451-1.93 2.544-.092 4.207 1.034.936 2.426 3.019 3.093 4.629.667 1.611 1.635 2.928 2.15 2.928.985 0 .894-.197-2.931-6.343-2.187-3.514-2.257-3.991-.82-5.578 4.431-4.897-.487-10.079-9.564-10.079H153zm23.986.5.197 11.75.553-11c.428-8.525.857-10.936 1.908-10.715 1.212.255 5.808 4.936 13.464 13.715l2.617 3-.164-9.5c-.139-8.002-.22-8.436-.515-2.75-.192 3.713-.699 6.75-1.126 6.75s-3.361-2.925-6.519-6.5c-4.107-4.649-6.436-6.5-8.178-6.5H177zM199 184.5c0 9.447-.181 10.5-1.801 10.5-.991 0-5.041-3.623-9-8.051L181 178.898l.18 8.801.18 8.801.57-7.301.57-7.3 6 6.988c4.646 5.411 6.621 7.002 8.75 7.05L200 196v-11c0-6.05-.225-11-.5-11s-.5 4.725-.5 10.5m-113-4v3.5l5.75-.15 5.75-.15-4.491-.6c-3.184-.425-4.588-1.109-4.823-2.35-.277-1.457.422-1.75 4.182-1.75 2.483 0 4.792-.45 5.132-1 .386-.625-1.656-1-5.441-1H86zm20 .057c0 3.555.004 3.558 4.148 3.25 7.843-.581 7.595-6.807-.27-6.807-3.777 0-3.878.092-3.878 3.557m25.08-1.807c-1.177.963-2.408 3.417-2.734 5.454-.512 3.202-.18 4.116 2.454 6.75 3.376 3.376 5.898 3.77 10.128 1.583 3.172-1.64 4.072-3.335 4.072-7.664 0-6.464-8.778-10.325-13.92-6.123m25.31-.323c-1.134 2.955.062 6.066 2.462 6.406 4.654.659 7.148-.648 7.148-3.745 0-1.698-.647-3.122-1.582-3.481-2.874-1.103-7.471-.633-8.028.82M108 180.5c0 2.282.366 2.591 2.75 2.316 1.978-.227 2.75-.878 2.75-2.316s-.772-2.089-2.75-2.316c-2.384-.275-2.75.034-2.75 2.316m24.635-.427c-5.014 3.943-2.196 11.927 4.21 11.927 5.687 0 8.379-7.776 4.155-12-2.555-2.555-5.052-2.534-8.365.073M65 181c0 1.467.667 2 2.5 2s2.5-.533 2.5-2-.667-2-2.5-2-2.5.533-2.5 2m93 0c0 1.797.504 2.078 3.25 1.813 2.083-.2 3.25-.852 3.25-1.813s-1.167-1.613-3.25-1.813c-2.746-.265-3.25.016-3.25 1.813m-79.428 5c.372 1.375 1.278 3.625 2.013 5l1.335 2.5.04-2.639c.022-1.452-.884-3.702-2.013-5l-2.053-2.361zm-4.061 2.377c.946 1.443 1.908 2.623 2.139 2.623.724 0-1.605-3.854-2.759-4.567-.604-.374-.325.501.62 1.944M86 189.5v3.5l6.25-.185 6.25-.185-5.25-.367c-4.411-.309-5.25-.679-5.25-2.315 0-1.642.707-1.948 4.5-1.948 2.475 0 4.5-.45 4.5-1s-2.475-1-5.5-1H86zm20.19.25.31 3.75 4.828-.068q6.577-.092 6.657-3.611c.045-2.019-3.546-3.821-7.617-3.821h-4.489zm1.81-.25c0 2.195.431 2.5 3.531 2.5 2.316 0 3.743-.551 4.146-1.601.756-1.969-1.274-3.363-4.927-3.384-2.271-.012-2.75.421-2.75 2.485m48 1.941c0 5.788 1.791 6.876 2.191 1.332.422-5.836 3.192-5.822 7.127.037 3.22 4.793 4.688 5.037 2.279.378-2.4-4.641-4.442-6.188-8.168-6.188-3.391 0-3.429.05-3.429 4.441m-88.09-.609c.54 1.008 1.75 2.47 2.69 3.25 1.61 1.336 1.612 1.23.029-1.832-.924-1.787-2.135-3.25-2.69-3.25-.669 0-.678.618-.029 1.832m10.654 4.461c.376.986.935 1.541 1.243 1.233s.001-1.114-.683-1.793c-.988-.98-1.102-.865-.56.56m126.792 3.514c-1.582 1.018-4.368 6.811-4.277 8.893.052 1.178.431.833 1.098-.995.984-2.697 1.236-2.785 7.171-2.5l6.152.295v3.917c0 2.594-.506 4.084-1.5 4.412-1.267.419-1.294.247-.173-1.111.729-.885 1.179-2.645 1-3.913-.283-1.997-.982-2.347-5.23-2.616-2.778-.176-5.193.158-5.573.771-1.486 2.406-1.125 10.797.537 12.458 1.79 1.79 4.896 1.36 7.403-1.025 1.27-1.208 1.104-1.393-1.25-1.393-1.746 0-2.714-.535-2.714-1.5 0-.933.944-1.5 2.5-1.5 1.375 0 2.5.471 2.5 1.047 0 .575 1.125.238 2.5-.75 2.212-1.59 2.471-2.429 2.25-7.297l-.25-5.5-4.48-.319c-2.465-.175-4.955-.712-5.534-1.193-.579-.48-1.538-.562-2.13-.181M94 199.378c0 .207.787.995 1.75 1.75 1.586 1.243 1.621 1.208.378-.378-1.307-1.666-2.128-2.195-2.128-1.372m12.406.774c-.766 1.24 2.138 3.848 4.285 3.848 1.639 0 1.702-2.207.109-3.8-1.518-1.518-3.472-1.539-4.394-.048m6.436 1.598c-.088 1.512-.077 3.626.022 4.696.169 1.812.013 1.788-2.267-.355-2.482-2.331-4.597-2.132-4.597.433 0 1.679 3.631 3.822 5.021 2.963.538-.333.979-.128.979.454s.712 1.059 1.582 1.059c1.347 0 1.276.493-.474 3.326-1.56 2.524-1.776 3.606-.896 4.486 1.744 1.744 4.757-1.445 4.93-5.217.125-2.733.213-2.627.75.905.493 3.24 1.061 4.064 2.995 4.337 2.334.33 4.067-1.158 4.098-3.517.008-.65-.99-1.325-2.219-1.5l-2.234-.32 2.34-2.173c2.552-2.37 2.131-4.327-.931-4.327-1.068 0-1.941-.45-1.941-1s.9-1 2-1q2 0 2-2t-2-2c-1.1 0-2-.45-2-1s-.675-1-1.5-1-1.5.54-1.5 1.2c0 .933-.267.933-1.2 0-1.891-1.891-2.787-1.422-2.958 1.55m14.408-2.035c-1.414.511-1.724 3.285-.367 3.285.486 0 1.119.901 1.407 2.001.288 1.101.115 1.75-.383 1.441-1.39-.859-1.077 4.986.343 6.417 1.002 1.01.903 1.127-.5.593-2.588-.985-2.135.317 1.308 3.76 2.954 2.954 3.078 2.986 3.617.923.307-1.174 1.181-2.135 1.942-2.135s1.383-.45 1.383-1-.341-1-.759-1c-.417 0-.639-3.33-.494-7.4l.265-7.4-3.256.032c-1.791.017-3.818.234-4.506.483m10.5-.026c-1.946.509-2.439 4.311-.559 4.311.655 0 .318.638-.748 1.418-2.614 1.911-1.314 2.912 4.074 3.139 3.782.159 4.483-.104 4.483-1.684 0-1.092-.705-1.873-1.691-1.873-1.477 0-1.446-.19.25-1.5 1.921-1.485 1.921-1.515 0-3-1.973-1.524-2.693-1.625-5.809-.811m42.656.463c-.766 1.24 2.138 3.848 4.285 3.848 1.639 0 1.702-2.207.109-3.8-1.518-1.518-3.472-1.539-4.394-.048M187 201.3c0 1.265-.489 2.789-1.087 3.387-.748.748-.762 1.288-.044 1.732.574.355.773 1.351.442 2.214-.332.863.021 1.954.784 2.426 1.156.714 1.087 1.362-.416 3.907-1.61 2.726-1.634 3.114-.227 3.654 2.27.871 4.371-1.279 4.83-4.944.334-2.663.424-2.489.558 1.074.15 3.98.343 4.25 3.043 4.25 3.666 0 5.123-3.692 1.925-4.875-1.874-.694-1.908-.882-.422-2.368 2.243-2.243 2.039-4.757-.386-4.757-1.1 0-2-.398-2-.883 0-.486.9-1.119 2-1.407 1.1-.287 2-1.057 2-1.71s-.9-1.423-2-1.71c-1.1-.288-2-.921-2-1.407 0-.485-.927-.883-2.059-.883-1.357 0-1.818.426-1.353 1.25.564 1 .436 1-.641 0-2.004-1.86-2.947-1.524-2.947 1.05m-23.962-.345c-.804.509-1.556 2.414-1.672 4.235-.115 1.82-.504 4.255-.865 5.411-.963 3.083 1.871 5.399 6.606 5.399 3.451 0 3.847-.226 3.063-1.75-.495-.963-.708-2.282-.474-2.932.234-.651-.492-1.673-1.612-2.273s-2.522-1.995-3.114-3.1c-.974-1.821-.835-1.949 1.478-1.369 2.912.731 3.356-.629.981-3.005-1.81-1.809-2.379-1.889-4.391-.616m17.629 3.712c-1.297 1.297-.64 3.277 1.46 4.401 2.898 1.551 4.436-.788 2.167-3.295-1.721-1.902-2.572-2.162-3.627-1.106M114.5 206c-.34.55-.141 1 .441 1s1.059-.45 1.059-1-.198-1-.441-1-.719.45-1.059 1m74 0c-.34.55-.141 1 .441 1s1.059-.45 1.059-1-.198-1-.441-1-.719.45-1.059 1m19.5 3c0 .55.423 1 .941 1s1.219-.45 1.559-1-.084-1-.941-1-1.559.45-1.559 1m-79 1c0 .55.45 1 1 1s1-.45 1-1-.45-1-1-1-1 .45-1 1m3 .059c0 .582.45.781 1 .441s1-.816 1-1.059-.45-.441-1-.441-1 .477-1 1.059m5.75-.37c-2.008.525-2.368 3.887-.5 4.665.91.379.773.908-.5 1.943-2.724 2.215-2.137 2.703 3.25 2.703 3.823 0 5-.36 5-1.531 0-.843-.688-1.796-1.529-2.119-1.323-.507-1.289-.773.25-1.968 1.697-1.319 1.69-1.451-.162-2.882-1.973-1.524-2.693-1.625-5.809-.811m-30.265 4.34c-1.636 3.163-1.289 4.971.953 4.971 1.591 0 4.023-5.445 3.099-6.94-1.12-1.813-2.424-1.179-4.052 1.969M163.5 212c.34.55.816 1 1.059 1s.441-.45.441-1-.477-1-1.059-1-.781.45-.441 1m17.661 1.547c-1.675 3.674-1.433 5.453.741 5.453 1.953 0 4.611-5.362 3.527-7.115-1.04-1.682-3.112-.876-4.268 1.662"/><path fill="#1976D2" fill-opacity=".984" fill-rule="evenodd" d="M129.375 6.75c-1.964 6.111-2.975 7.603-6.015 8.873-4.582 1.915-4.949 1.8-6.001-1.866-.562-1.959-1.695-3.391-2.863-3.615-1.645-.317-1.741-.142-.642 1.182.71.855 1.145 2.794.968 4.308-.257 2.195-1.023 2.933-3.781 3.643-1.903.49-4.727.704-6.277.477-1.738-.255-2.672.001-2.437.667.227.643 2.873 1.011 6.527.907 6.138-.173 6.146-.17 6.146 2.691 0 1.576-.457 3.148-1.016 3.493-.559.346-.768 1.03-.465 1.521s-1.182 1.777-3.301 2.858c-5.343 2.726-6.255 4.108-5.555 8.424.631 3.885 3.337 5.241 3.337 1.672 0-1.948 5.152-5.973 7.656-5.981 2.239-.007.075 4.084-3.033 5.736-2.422 1.287-2.73 1.743-1.373 2.033 2.813.601 2.089 1.599-3.707 5.112-9.522 5.771-10.105 8.603-1.193 5.794 2.929-.924 5.628-1.679 5.997-1.679s.387 2.415.04 5.366c-.803 6.828 1.109 8.556 2.073 1.874 1.282-8.891 1.288-8.898 9.131-12.623 4.075-1.935 7.409-4.137 7.409-4.893s-1.125-2.433-2.501-3.725c-2.495-2.344-2.496-2.353-.5-4.213C129.1 33.761 130 32.203 130 31.325c0-1.317-.788-1.489-4.5-.98-4.009.549-4.5.404-4.5-1.338 0-1.177 1.24-2.597 3.115-3.566 2.215-1.146 2.805-1.921 2.043-2.683s-.486-1.893.954-3.915c1.703-2.392 2.727-2.843 6.456-2.843 2.438 0 4.432-.45 4.432-1 0-1.029-1.817-1.358-5.75-1.039-2.664.216-2.636.385-.794-4.835C132.739 5.488 132.735 5 131.424 5c-.818 0-1.74.787-2.049 1.75m18.253 7.002c-.801 1.549-1.767 4.473-2.147 6.497-.859 4.579-1.936 5.482-8.357 7.007-2.818.67-5.124 1.62-5.124 2.112 0 .935 6.22.345 9.25-.876 1.182-.477 1.75-.24 1.75.73 0 .79-2.25 2.49-5 3.778s-5 2.698-5 3.133.944 3.315 2.098 6.398c1.153 3.084 1.941 5.732 1.75 5.885s-2.722 1.549-5.624 3.104c-2.901 1.554-5.116 3.305-4.921 3.89.231.693 4.224.949 11.472.734 11.678-.346 15.033.314 11.437 2.249-1.699.914-.937 1.123 4.365 1.2 3.533.051 6.423-.276 6.423-.727 0-1.945-5.492-4.136-11.596-4.626l-6.596-.529.609-3.106c.634-3.226 1.307-3.926 6.617-6.871 2.645-1.467 2.976-2.017 1.953-3.25-.678-.816-2.639-1.499-4.359-1.517l-3.128-.034 2.203-1.716a155 155 0 0 1 4.802-3.553c2.132-1.506 2.378-2.1 1.371-3.314-.779-.937-2.108-1.258-3.633-.875-1.928.484-2.337.253-2.064-1.167.194-1.008 2.919-3.022 6.331-4.68l5.99-2.909-3.278-1.374c-2.371-.994-3.444-2.205-3.879-4.38-.83-4.151-1.998-4.533-3.715-1.213m24.823 44.168c.838 1.357-4.593 5.276-6.589 4.754-1.056-.276-1.533.018-1.246.769.398 1.036-6.56 5.057-8.75 5.057-.385 0-1.037.338-1.449.75-1.449 1.449 3.128.686 7.333-1.223l4.25-1.929v2.383c0 2.687-4.12 6.079-9.885 8.139-3.073 1.098-3.24 1.298-1.115 1.332 1.375.022 3.973-.858 5.774-1.956S164.468 74 164.98 74c1.095 0-1.374 7.426-3.596 10.818-1.473 2.247-1.625 2.274-3.462.611-2.233-2.02-2.51-.79-.438 1.946.802 1.06 2.08 1.623 2.936 1.294.834-.32 1.764-.18 2.068.311.303.491 1.33.839 2.282.773 2.786-.192 7.23 1.201 7.23 2.266 0 1.436-4.734 1.2-5.399-.269-.311-.687-.452-.35-.312.75.2 1.584 1.004 2 3.865 2 3.266 0 4.048.59 8.146 6.139 4.29 5.81 6.7 8.27 6.7 6.838 0-.352-1.49-2.516-3.311-4.809-1.821-2.292-4.068-5.386-4.994-6.874-1.679-2.698-1.673-2.71 1.811-4.364 1.922-.912 3.494-2.309 3.494-3.104 0-1.211-1.571-1.331-9.645-.739l-9.645.708.563-2.397c.31-1.319 1.328-4.423 2.263-6.898s1.833-6.69 1.995-9.366c.255-4.201.787-5.272 3.891-7.831 3.301-2.72 3.934-4.803 1.46-4.803-.55 0-.744.414-.431.92m18.517.771c-.017.995-.666 2.646-1.441 3.669-1.367 1.805-1.497 1.798-4.372-.25-3.699-2.633-3.943-2.625-4.335.14-.271 1.904-.837 2.199-3.677 1.922-2.213-.217-3.131.039-2.691.75.366.593 1.764 1.078 3.107 1.078 4.063 0 2.818 2.697-2.949 6.386-2.964 1.897-5.759 4.048-6.211 4.781-.487.79.318.588 1.976-.497 3.721-2.433 4.317-1.526 1.739 2.645-2.557 4.137-2.813 7.167-.532 6.292.87-.334 3.795-.607 6.5-.607 2.929 0 4.918-.448 4.918-1.107 0-.609-.675-.848-1.5-.531s-1.5.139-1.5-.393c0-.533.675-.969 1.5-.969 1.817 0 1.99-1.631.25-2.349-.757-.313-.363-.786 1-1.2 1.238-.376 2.25-1.108 2.25-1.627s-.45-.664-1-.324-1-.084-1-.941c0-1.129 1.013-1.559 3.674-1.559h3.675l-2.175-2.314c-1.196-1.273-2.174-2.848-2.174-3.5 0-1.459 3.937-1.541 7.574-.158 4.064 1.545 4.184.301.157-1.619-3.494-1.666-3.508-1.699-2.133-4.99.881-2.108 1.024-3.535.393-3.925-.545-.336-1.005.202-1.023 1.197m-86.84 4.654c-.614.74-1.4 2.765-1.747 4.5-.636 3.178-1.739 4.003-2.881 2.155-.34-.55-1.44-1-2.444-1-1.639 0-1.812.895-1.691 8.75.173 11.188-1.585 14.93-12.094 25.753-17.394 17.912-17.757 31.613-1.06 39.966 3.893 1.948 8.57 3.531 10.43 3.531 1.854 0 8.881-1.399 15.615-3.11 14.957-3.799 20.433-3.581 27.731 1.102 2.677 1.718 6.325 5.021 8.106 7.341 7.098 9.246 13.666 12.19 25.518 11.437 8.108-.515 18.695-4.839 22.865-9.338 7.627-8.23 2.659-20.811-10.916-27.646-9.163-4.614-14.115-8.339-17.674-13.295-1.772-2.468-3.444-4.266-3.715-3.995s.327 1.397 1.329 2.504 1.574 2.259 1.272 2.561c-.301.302-2.264-1.614-4.36-4.256a662 662 0 0 0-4.556-5.699c-.409-.492-.484.1-.166 1.316s2.813 4.655 5.544 7.644c2.732 2.989 4.508 5.434 3.948 5.434s-1.695.26-2.523.577c-.827.318-2.439-.357-3.582-1.5L155 116v3.981c0 3.432.351 4.069 2.546 4.62 1.401.351 5.052.431 8.114.177l5.567-.461-.67 7.091c-1.227 12.979-1.615 14.449-3.926 14.902-1.172.23 1.469.411 5.869.404 4.4-.008 6.712-.206 5.138-.441l-2.862-.427.702-8.673c.387-4.77.999-8.952 1.362-9.293s2.064-.026 3.78.7l3.12 1.32-.51 7.3c-.28 4.015-1.009 7.631-1.62 8.035-2.299 1.521.625.686 4.479-1.28 2.204-1.125 4.26-2.7 4.567-3.5.615-1.604 2.344-1.996 2.344-.532 0 .508-1.144 2.283-2.542 3.944-4.875 5.794-21.137 9.668-30.235 7.201-3.173-.86-5.044-2.219-7.25-5.264-4.282-5.912-3.806-7.339 1.277-3.824 2.338 1.616 5.6 3.184 7.25 3.485 2.104.384 1.722.07-1.277-1.051C154.019 142.095 149 137.036 149 133.1c0-7.383-5.216-13.917-11.815-14.802-3.985-.535-4.036-.596-7.748-9.448-3.621-8.634-3.678-8.955-1.837-10.346 1.045-.79 2.273-1.327 2.728-1.194s2.255 2.93 4 6.216c2.816 5.304 3.553 6.01 6.567 6.298 2.042.195 3.73-.203 4.235-1 1.516-2.391.911-3.824-1.613-3.824-1.973 0-3-1.02-5-4.967-1.384-2.731-2.517-5.181-2.517-5.442s1.912-.652 4.25-.867c3.221-.296 3.76-.566 2.225-1.115-1.575-.564-2.042-1.654-2.103-4.917-.183-9.685-1.707-20.277-3.157-21.942-3.362-3.859-11.112-1.001-13.456 4.962-.82 2.083-1.813 5.567-2.208 7.741-.74 4.077-3.863 11.004-5.384 11.944-1.274.787-6.129-4.662-7.129-8.001l-.866-2.896-.086 2.777c-.092 2.98 5.161 9.723 7.575 9.723.94 0 1.339 1.489 1.339 5 0 4.321-.27 5-1.986 5-1.203 0-2.926-1.477-4.373-3.75-3.098-4.868-14.038-25.344-14.487-27.115-.601-2.377 2.255-.638 4.346 2.647 2.121 3.33 4.151 4.424 2.727 1.468-.464-.963-.592-3.325-.285-5.25.741-4.646 4.2-4.978 5.225-.5l.687 3-.177-2.977c-.12-2.015-.932-3.351-2.515-4.136-1.439-.714-1.917-1.421-1.242-1.838 1.847-1.141 5.049.459 5.539 2.768l.886 4.183c.25 1.182.47.671.539-1.25.187-5.245-5.015-9.206-7.756-5.905m23.562 5.238c-1.704 1.704-2.955 4.51-3.678 8.25-.602 3.117-1.965 7.692-3.028 10.167-2.37 5.514-3.314 11.066-2.175 12.784 1.188 1.792 4.191.408 4.191-1.931 0-1.063.902-3.7 2.003-5.86 1.102-2.16 2.483-6.159 3.068-8.886C129.178 77.941 132.787 73 135.452 73c.949 0 1.548-.891 1.548-2.3 0-5.104-5.151-6.276-9.31-2.117m-18.119 6.988c-.367 1.466-.475 2.858-.24 3.094.236.235.73-.771 1.098-2.236.367-1.466.475-2.858.24-3.094-.236-.235-.73.771-1.098 2.236m23.51.843c-1.215 1.293-2.894 4.973-3.731 8.176s-2.391 7.531-3.456 9.617S124.373 98 124.878 98c1.823 0 12.643-6.19 13.505-7.726.951-1.693-1.006-14.923-2.328-15.74-.42-.26-1.759.586-2.974 1.88m-28.16 5.337c.478 3.451.547 3.521.877.877.197-1.579-.036-3.266-.519-3.749-.503-.503-.656.722-.358 2.872m112.488.439c.383 3.171.14 3.75-1.732 4.114-1.778.346-1.673.449.573.56 2.244.111 2.737-.278 2.68-2.114-.039-1.237-.497-3.15-1.019-4.25-.732-1.545-.846-1.161-.502 1.69M99.076 100.933c-2.117 13.881-2.133 17.631-.074 16.87.451-.167 3.478-3.631 6.728-7.698l5.909-7.394-4.57-8.327c-2.513-4.58-4.827-8.34-5.142-8.356-.315-.015-1.598 6.692-2.851 14.905M206.75 87.916c2.654 2.246 2.835 3.084.667 3.084-2.398 0-1.108 2.363 1.657 3.034l2.426.59-2.75.707c-1.512.389-3.875.474-5.25.188l-5-1.038c-1.375-.286-2.5-.061-2.5.5s1.238 1.051 2.75 1.089 3.648.421 4.746.85c1.56.608.958.935-2.75 1.491-5.181.777-6.18 2.191-2.246 3.178 4.571 1.148 2.985 2.874-2.25 2.45-1.859-.15-2.25.323-2.25 2.723 0 4.249.909 4.525 4.508 1.365 1.891-1.66 4.969-3.108 7.453-3.505 3.183-.509 4.084-1.041 3.636-2.149l-1.204-2.973c-.39-.963-.032-1.5 1-1.5.884 0 1.607-.398 1.607-.883 0-.486.945-1.131 2.101-1.433 2.75-.719 1.492-2.684-1.719-2.684-1.412 0-2.231-.435-1.882-1 .34-.55 2.166-1 4.059-1S217 90.55 217 90s-1.139-1-2.532-1-4.205-.673-6.25-1.495c-3.706-1.489-3.711-1.488-1.468.411m-31.566.812c-2.681.33-3.097.672-2.174 1.784.887 1.069 1.683 1.129 3.566.271 1.333-.607 2.424-1.482 2.424-1.944s-.113-.767-.25-.679-1.742.344-3.566.568m-83.405 8.028c-.947 1.509-2.251 3.462-2.898 4.339-1.303 1.768-.691 5.417 1.385 8.255 1.203 1.645 1.52.896 2.853-6.75.825-4.73 1.248-8.597.94-8.594-.307.004-1.334 1.241-2.28 2.75M145.5 96c.34.55 1.068 1 1.618 1s.722-.45.382-1-1.068-1-1.618-1-.722.45-.382 1m75.497 2.397c-4.939 1.707-6.07 2.515-10.801 7.715-5.118 5.625-5.468 7.212-.661 2.992 1.976-1.736 4.658-3.104 6.084-3.104h2.549l-3.334 4.228c-1.834 2.326-5.246 6.231-7.584 8.679-4.57 4.786-4.767 5.093-3.264 5.093.543 0 4.227-3.825 8.187-8.5 6.407-7.563 7.572-8.5 10.573-8.5 1.993 0 3.119-.409 2.754-1-.34-.55-3.136-1-6.214-1-5.551 0-5.581-.016-3.768-2.02 1.006-1.111 3.854-2.611 6.33-3.333s4.084-1.571 3.574-1.886-2.501-.029-4.425.636m-109.325 12.851c-8.726 10.707-8.62 11.126 2.828 11.204 5.982.041 13.5-1.701 13.5-3.129 0-1.313-7.452-17.323-8.063-17.323-.401 0-4.12 4.162-8.265 9.248m42.328-8.87c0 .207.787.995 1.75 1.75 1.586 1.243 1.621 1.208.378-.378-1.307-1.666-2.128-2.195-2.128-1.372m-72.915 6.263C78.838 111.193 77 113.69 77 114.189c0 1.961 5.563 5.901 10.335 7.318 5.372 1.595 8.797 1.832 12.423.861 2.074-.556 1.889-.84-2.263-3.473C93.215 116.18 87 108.132 87 105.304c0-2.367-1.776-1.365-5.915 3.337m65.915-.082c0 1.451.433 2.292 1 1.941.55-.34 1-1.491 1-2.559s-.45-1.941-1-1.941-1 1.152-1 2.559M195 107c0 .55.423 1 .941 1s1.219-.45 1.559-1-.084-1-.941-1-1.559.45-1.559 1m-45.637 3.79c-.883 1.415-.628 2.726 1.214 6.25l2.333 4.46.045-4.668c.07-7.271-1.341-9.645-3.592-6.042m81.683 8.099c-1.678 4.051-1.059 6.186 2.488 8.576 3.914 2.638 3.801 4.119-.284 3.707-2.729-.276-3.25.004-3.25 1.75 0 1.708-.623 2.078-3.5 2.078-1.925 0-3.5.37-3.5.822s1.337 2.589 2.972 4.75c3.439 4.545 3.712 5.575 1.278 4.828-.963-.296-.625.152.75.995 5.161 3.166 5.359 1.421.5-4.395-1.925-2.304-3.5-4.597-3.5-5.095 0-1.206 3.722-1.164 4.473.051.325.526 1.246.705 2.047.398.8-.307 2.811-.086 4.467.492 2.602.907 3.013.812 3.013-.698 0-.961-.469-2.217-1.042-2.79-.724-.724-.536-1.463.611-2.416 1.427-1.184 2.31-1.023 6.425 1.171l4.77 2.544-.495-3.684c-.271-2.027.043-4.688.7-5.914 1.894-3.54.488-3.561-4.947-.073-4.57 2.932-5.333 3.128-7.966 2.037-1.601-.663-3.678-2.053-4.616-3.089-1.467-1.622-1.528-2.307-.437-4.941.696-1.681 1.041-3.282.766-3.557s-1.05.829-1.723 2.453m-156.943.361c-1.85 4.909-2.213 8.887-1.115 12.214 1.874 5.677 10.68 11.82 18.809 13.12 3.777.604 4.287.354 9.97-4.87 7.435-6.835 22.891-14.783 30.094-15.475 4.371-.42 5.309-.16 7.564 2.095 2.643 2.643 3.454 7.731 1.678 10.533-.703 1.11-1.427.953-3.846-.835-2.625-1.941-3.441-2.074-6.868-1.123-4.935 1.37-11.948 1.397-14.455.056-1.368-.733-2.592-.69-4.184.145-2.782 1.459-9.95 7.027-9.546 7.416.163.156 3.671-.565 7.796-1.604 16.655-4.192 25.589-1.754 35.678 9.738 9.126 10.395 17.031 13.067 29.33 9.916C186.279 157.689 193 152.27 193 146.07c0-1.892-.286-1.83-4.25.932-8.392 5.847-26.482 7.841-32.911 3.628-3.903-2.557-7.943-10.903-8.861-18.307-.93-7.502-3.268-10.73-9.018-12.453-3.152-.945-4.339-.778-8.56 1.204-4.799 2.253-14.936 3.195-35.052 3.257-5.88.018-13.266-2.478-15.881-5.367-2.303-2.545-3.323-2.478-4.364.286M129 125.692c-7.509 2.677-13.051 5.804-12.783 7.214.418 2.193 4.065 2.528 12.062 1.107 5.862-1.042 7.105-.991 9.188.374 2.238 1.466 2.451 1.446 2.997-.272.806-2.541-.954-6.772-3.35-8.054-2.08-1.113-5.579-1.272-8.114-.369m60 11.93c0 2.17.249 2.416 1.441 1.427.792-.657 1.194-1.837.893-2.622-.902-2.349-2.334-1.615-2.334 1.195m15.558 62.285c-.309.498.34.671 1.441.383 2.335-.611 2.63-1.29.56-1.29-.793 0-1.693.408-2.001.907M107 200.941c0 .518.445 1.216.989 1.552.566.35.734-.051.393-.941-.665-1.732-1.382-2.049-1.382-.611m55.481 1.089c-.388.629-.179 1.668.465 2.307.894.887 1.014.747.506-.587-.498-1.31-.157-1.75 1.358-1.75 1.113 0 2.252.461 2.532 1.025.279.564.394.451.255-.25-.33-1.661-4.201-2.225-5.116-.745m44.35.203c-1.312.412.374.565 3.86.35l6.191-.383-.506 5.15c-.398 4.06-.267 4.776.619 3.383.618-.972.984-3.447.814-5.5-.303-3.664-.386-3.733-4.478-3.733-2.293 0-5.218.33-6.5.733m-100.288 3.698c-.317.512-.049 1.256.595 1.654.698.432.904.292.51-.345-.363-.588-.095-1.297.596-1.576.899-.362.917-.529.065-.585-.655-.043-1.45.34-1.766.852m73.862.224c-.472.763-.271.88.592.347.823-.509 1.806-.125 2.655 1.036.741 1.015 1.348 1.398 1.348.853 0-1.159-2.067-3.391-3.141-3.391-.408 0-1.062.52-1.454 1.155m24.007.214c-.289.753-.388 3.791-.219 6.75.291 5.101.451 5.387 3.069 5.503 2.53.111 2.551.085.25-.317-2.351-.41-2.512-.817-2.512-6.371V206h4c3.571 0 4 .261 4 2.434 0 1.887-.617 2.527-2.75 2.85-2.56.387-2.525.427.5.566 3.076.142 3.25-.037 3.25-3.35 0-3.485-.019-3.5-4.531-3.5-2.913 0-4.719.489-5.057 1.369m-73.333 3.214c.048 1.165.285 1.402.604.605.289-.722.253-1.585-.079-1.917s-.568.258-.525 1.312m-3 1c.048 1.165.285 1.402.604.605.289-.722.253-1.585-.079-1.917s-.568.258-.525 1.312m5.559-.083c-.316.825-.139 1.5.393 1.5.533 0 .969-.675.969-1.5s-.177-1.5-.393-1.5-.652.675-.969 1.5m48.965 1.333c-.283.459.12.834.897.834s1.18-.375.897-.834-.687-.833-.897-.833-.614.375-.897.833m-63.144 1.234c-.363.586-.445 1.281-.183 1.543s.743-.218 1.069-1.067c.676-1.762.1-2.072-.886-.476m77.179 2.433c.317.825.753 1.5.969 1.5s.393-.675.393-1.5-.436-1.5-.969-1.5-.709.675-.393 1.5m-66.559 1.75c-.043.963.596 1.75 1.421 1.75s1.493-.787 1.485-1.75c-.012-1.37-.203-1.454-.879-.387-.729 1.151-.948 1.151-1.406 0-.378-.95-.566-.833-.621.387"/></svg>